<svg xmlns="http://www.w3.org/2000/svg" viewBox="0 0 73.94 66.4625" x="0px" y="0px"><g data-name="Layer 2"><g data-name="Layer 2"><path d="M63.87,5.66C57.73,2.36,48.82.23,38.66,0L37,0l-1.7,0C25.12.23,16.21,2.36,10.08,5.66S0,13.21,0,18V35.2c0,9.91,16.58,18,37,18s37-8.06,37-18V18C73.94,13.21,70.1,8.88,63.87,5.66ZM35.34,1.52,37,1.5l1.63,0c16.29.38,29.28,6.34,29.28,13.63C67.88,22.67,54,28.79,37,28.79S6.06,22.67,6.06,15.15C6.06,7.86,19.05,1.9,35.34,1.52ZM6.46,9.94a8.53,8.53,0,0,0-1.9,5.21C4.56,23.64,18.8,30.29,37,30.29s32.41-6.65,32.41-15.14a8.48,8.48,0,0,0-1.91-5.21C69.75,12,71,14.27,71,16.69,71,25.07,55.76,31.88,37,31.88S2.89,25.07,2.89,16.69C2.89,14.27,4.18,12,6.46,9.94Zm66,25.26c0,9.08-15.92,16.47-35.47,16.47S1.5,44.28,1.5,35.2V23C6,30.49,20.2,36,37,36s31-5.46,35.47-12.92ZM37,34.45C17.41,34.45,1.5,27.06,1.5,18v0C2.83,26.7,17.93,33.38,37,33.38S71.1,26.7,72.43,18h0C72.44,27.06,56.52,34.45,37,34.45Z"/><path d="M37.06,17c2.48,0,5-.87,5-2.54,0-3.34-10-3.34-10,0C32.07,16.12,34.58,17,37.06,17Zm0-3.58c2.29,0,3.49.77,3.49,1s-1.2,1-3.49,1-3.49-.77-3.49-1S34.77,13.41,37.06,13.41Z"/><path d="M57.75,17c2.48,0,5-.87,5-2.54,0-3.34-10-3.34-10,0C52.76,16.12,55.27,17,57.75,17Zm0-3.58c2.29,0,3.49.77,3.49,1s-1.2,1-3.49,1-3.49-.77-3.49-1S55.46,13.41,57.75,13.41Z"/><path d="M16.37,17c2.48,0,5-.87,5-2.54,0-3.34-10-3.34-10,0C11.38,16.12,13.89,17,16.37,17Zm0-3.58c2.29,0,3.49.77,3.49,1s-1.2,1-3.49,1-3.49-.77-3.49-1S14.08,13.41,16.37,13.41Z"/><path d="M37.06,7.39c2.08,0,4.19-.76,4.19-2.21,0-2.89-8.38-2.89-8.38,0C32.87,6.63,35,7.39,37.06,7.39Zm0-2.91a4,4,0,0,1,2.68.7,4,4,0,0,1-2.68.71,4.31,4.31,0,0,1-2.7-.67C34.45,5,35.39,4.48,37.06,4.48Z"/><path d="M32.87,24.09c0,1.45,2.11,2.21,4.19,2.21s4.19-.76,4.19-2.21C41.25,21.2,32.87,21.2,32.87,24.09Zm4.19.71a4.21,4.21,0,0,1-2.7-.68c.09-.21,1-.73,2.7-.73a4,4,0,0,1,2.68.7A4,4,0,0,1,37.06,24.8Z"/></g></g><text x="0" y="68.17" fill="#000000" font-size="5px" font-weight="bold" font-family="'Helvetica Neue', Helvetica, Arial-Unicode, Arial, Sans-serif">Created by Aiko Watanabe Nagano</text><text x="0" y="73.17" fill="#000000" font-size="5px" font-weight="bold" font-family="'Helvetica Neue', Helvetica, Arial-Unicode, Arial, Sans-serif">from the Noun Project</text></svg>