<svg xmlns:inkscape="http://www.inkscape.org/namespaces/inkscape" xmlns:sodipodi="http://sodipodi.sourceforge.net/DTD/sodipodi-0.dtd" xmlns="http://www.w3.org/2000/svg" xmlns:svg="http://www.w3.org/2000/svg" xmlns:rdf="http://www.w3.org/1999/02/22-rdf-syntax-ns#" xmlns:cc="http://creativecommons.org/ns#" xmlns:dc="http://purl.org/dc/elements/1.1/" version="1.1" viewBox="0 0 12.7 15.875" xml:space="preserve" x="0px" y="0px"><g><path style="color:#000000;" d="m 4.4973953,0.26503966 c -0.510738,0 -1.057812,0.5479855 -1.057812,1.05872384 V 11.376496 c 0,0.510739 0.547074,1.058464 1.057812,1.058464 h 3.7050794 c 0.510738,0 1.057942,-0.547725 1.057942,-1.058464 V 1.3237635 c 0,-0.51073824 -0.547204,-1.05872384 -1.057942,-1.05872384 z m 0,0.26367191 h 3.7050794 c 0.368736,0 0.792317,0.42631579 0.792317,0.79505193 V 11.376496 c 0,0.368737 -0.423581,0.794792 -0.792317,0.794793 H 4.4973953 c -0.368736,0 -0.792187,-0.426056 -0.792187,-0.794793 V 1.3237635 c 0,-0.36873604 0.423451,-0.79505194 0.792187,-0.79505193 z" fill="#000000" stroke-linecap="round" stroke-linejoin="round"/><path style="" d="m 4.8938803,1.1903 c 0.293158,0 0.529166,0.2360083 0.529166,0.5291666 0,0.2931583 -0.236008,0.5291666 -0.529166,0.5291666 -0.293158,0 -0.529167,-0.2360083 -0.529167,-0.5291666 0,-0.2931583 0.236009,-0.5291666 0.529167,-0.5291666 z" fill="#000000" stroke-width="0.264583" stroke-linecap="round" stroke-linejoin="round"/><path style="" d="m 6.2157547,1.8517583 c 0.293159,0 0.529167,0.2360083 0.529167,0.5291667 0,0.2931583 -0.236008,0.5291666 -0.529167,0.5291666 -0.2931584,0 -0.5291664,-0.2360083 -0.5291664,-0.5291666 0,-0.2931584 0.236008,-0.5291667 0.5291664,-0.5291667 z" fill="#000000" stroke-width="0.264583" stroke-linecap="round" stroke-linejoin="round"/><path style="color:#000000;" d="m 4.8934893,0.79316466 c -0.510738,0 -0.925781,0.41504294 -0.925781,0.92578114 v 1.3242188 c 0,0.5107382 0.415043,0.9257812 0.925781,0.9257812 h 1.3222664 c 0.510738,0 0.925781,-0.4150428 0.925781,-0.9257812 V 1.7189458 c 0,-0.5107384 -0.415043,-0.92578114 -0.925781,-0.92578114 z m 0,0.26562494 h 1.3222664 c 0.368735,0 0.662109,0.2914202 0.662109,0.6601562 v 1.3242188 c 0,0.368736 -0.293374,0.6601562 -0.662109,0.6601562 H 4.8934893 c -0.368736,0 -0.660156,-0.29142 -0.660156,-0.6601562 V 1.7189458 c 0,-0.3687362 0.29142,-0.6601562 0.660156,-0.6601562 z" fill="#000000" stroke-linecap="round" stroke-linejoin="round"/><path style="" d="m 4.8938803,2.5132168 c 0.293158,0 0.529166,0.2360083 0.529166,0.5291667 0,0.2931583 -0.236008,0.5291666 -0.529166,0.5291666 -0.293158,0 -0.529167,-0.2360083 -0.529167,-0.5291666 0,-0.2931584 0.236009,-0.5291667 0.529167,-0.5291667 z" fill="#000000" stroke-width="0.264583" stroke-linecap="round" stroke-linejoin="round"/><path style="" d="m 6.2157557,3.0423835 c 0.146579,0 0.264583,0.1180041 0.264583,0.2645833 0,0.1465791 -0.118004,0.2645832 -0.264583,0.2645832 -0.1465794,0 -0.2645844,-0.1180041 -0.2645844,-0.2645832 0,-0.1465792 0.118005,-0.2645833 0.2645844,-0.2645833 z" fill="#000000" stroke-width="0.264583" stroke-linecap="round" stroke-linejoin="round"/><path style="" d="m 6.2157557,1.1903 c 0.146579,0 0.264583,0.1180041 0.264583,0.2645832 0,0.1465791 -0.118004,0.2645833 -0.264583,0.2645833 -0.1465794,0 -0.2645844,-0.1180042 -0.2645844,-0.2645833 0,-0.1465791 0.118005,-0.2645832 0.2645844,-0.2645832 z" fill="#000000" stroke-width="0.264583" stroke-linecap="round" stroke-linejoin="round"/></g><text x="0" y="27.7" fill="#000000" font-size="5px" font-weight="bold" font-family="'Helvetica Neue', Helvetica, Arial-Unicode, Arial, Sans-serif">Created by achmad</text><text x="0" y="32.7" fill="#000000" font-size="5px" font-weight="bold" font-family="'Helvetica Neue', Helvetica, Arial-Unicode, Arial, Sans-serif">from the Noun Project</text></svg>