<svg xmlns="http://www.w3.org/2000/svg" xmlns:xlink="http://www.w3.org/1999/xlink" version="1.0" x="0px" y="0px" viewBox="0 0 100 125" enable-background="new 0 0 100 100" xml:space="preserve"><path d="M93.3398438,39.6279297c-0.0495605-0.1153564-3.4612427-8.1043701-6.4153442-14.7225342  c1.1278687-4.390625,0.255188-8.3585815-0.182312-9.8848877c-0.1611328-0.5644531-0.8818359-2.4072266-3.3837891-2.4072266  c-1.0919189,0-1.7495117,0.3508911-2.1350098,0.7675781c-1.4091797-2.3452148-2.3672485-3.5455933-2.4265137-3.6191406  l-0.0058594,0.0046997c-3.098877-4.4030762-10.2610474-4.9112549-10.8006592-4.942749  c-2.8361816-0.4563599-5.4824829-0.5098877-5.678833-0.5131226h-25.734375  c-0.1964111,0.0032349-2.8432007,0.0567627-5.6796265,0.5132446c-0.5490723,0.0321045-7.7029419,0.5427856-10.7992554,4.9431152  l-0.0064697-0.005188c-0.0888672,0.1103516-2.1943359,2.7412109-4.8232422,7.9990234  c-2.6113281,5.2216797-9.6484375,21.7011719-9.7285156,21.8886719c-0.1347656,0.3603516-3.2646484,8.8994141-0.3994141,14.9482422  l0.0003052-0.0001221c0.0774536,0.166748,1.7236328,3.6722412,3.3268433,5.2393799  c1.4121094,1.3808594,4.1621094,4.5029297,5.5107422,7.4443359c1.3623047,2.9667969,2.8320312,13.75,2.8320312,25.9980469h1  c0-12.3828125-1.5175781-23.3525391-2.9238281-26.4150391c-1.3173828-2.8740234-3.9042969-5.9667969-5.7197266-7.7421875  c-1.4259033-1.3937988-2.9883423-4.6696777-3.1092529-4.9243164c-0.1083984-0.3149414-0.1727295-0.6967773-0.1593018-0.8979492  c0.3447266,0.2490234,0.9951172,1.1816406,1.4833984,1.8828125c0.3271484,0.4697266,0.6748047,0.9677734,1.0371094,1.4453125  c1.4033203,1.8457031,6.8417969,6.6230469,11.9775391,7.4931641c6.0361328,1.0224609,9.0283203,1.0703125,14.2236328,1.0703125  h29.6484375c5.1953125,0,8.1875-0.0478516,14.2226562-1.0703125c5.1376953-0.8701172,10.5761719-5.6474609,11.9794922-7.4931641  c0.3632812-0.4785156,0.7109375-0.9775391,1.0380859-1.4472656c0.4873047-0.7001953,1.1367188-1.6318359,1.4814453-1.8808594  c0.0134277,0.2011719-0.0509033,0.5830078-0.1593018,0.8979492c-0.1209106,0.2546387-1.6833496,3.5305176-3.1082764,4.9243164  c-1.8144531,1.7744141-4.4023438,4.8662109-5.7207031,7.7412109c-1.40625,3.0634766-2.9238281,14.0332031-2.9238281,26.4160156h1  c0-12.2480469,1.4697266-23.03125,2.8320312-25.9990234c1.3496094-2.9423828,4.0996094-6.0625,5.5117188-7.4433594  c1.6022339-1.5671387,3.2484131-5.0726318,3.3258667-5.2393799l0.0003052,0.0001221  C96.6132812,48.5488281,93.4833984,40.0097656,93.3398438,39.6279297z M83.3583984,13.6132812  c1.6894531,0,2.2431641,1.0537109,2.4257812,1.6943359c0.3681641,1.284729,1.0678101,4.4308472,0.4480591,8.0533447  c-1.0287476-2.2834473-1.9589233-4.2940674-2.6121216-5.6002197c-0.6520996-1.3041992-1.2717285-2.4458618-1.8366089-3.4284058  C81.8610229,14.0980835,82.1625366,13.6132812,83.3583984,13.6132812z M36.5849609,5.3105469h25.7138672  c0.2158203,0.0039062,8.4091797,0.1816406,11.1308594,2.3847656c2.4052734,1.9472656,2.7275391,2.7255859,3.6826172,5.0361328  c0.1591797,0.3857422,0.3359375,0.8115234,0.5400391,1.2900391c1.4365234,3.3505859,8.1757812,20.7460938,8.2373047,20.9052734  c0.0214844,0.0605469,2.0722656,6.09375-1.1054688,8.8896484c-2.9140625,2.5634766-8.5810547,3.7578125-17.8349609,3.7578125  H31.9394531c-9.2539062,0-14.9208984-1.1943359-17.8349609-3.7578125c-3.1708984-2.7900391-1.1269531-8.8291016-1.1123047-8.8730469  c0.0683594-0.1757812,6.8085938-17.5712891,8.2451172-20.921875c0.2041016-0.4785156,0.3808594-0.9042969,0.5400391-1.2900391  c0.9550781-2.3105469,1.2773438-3.0888672,3.6816406-5.0361328C28.203125,5.4736328,36.5097656,5.3115234,36.5849609,5.3105469z   M23.6456299,7.9456177c-1.5532227,1.446106-1.9718628,2.4198608-2.7921143,4.4039917  c-0.1582031,0.3818359-0.3330078,0.8037109-0.5361328,1.2773438C18.875,16.9941406,12.1279297,34.40625,12.0537109,34.5986328  c-0.0947266,0.2734375-2.2861328,6.7333984,1.390625,9.9677734c3.1494141,2.7714844,8.8535156,4.0078125,18.4951172,4.0078125  h35.0097656c9.6416016,0,15.3457031-1.2363281,18.4951172-4.0078125c3.6767578-3.234375,1.4853516-9.6943359,1.3837891-9.984375  c-0.0673828-0.1757812-6.8134766-17.5878906-8.2558594-20.9550781c-0.203125-0.4726562-0.3779297-0.8955078-0.5361328-1.2773438  c-0.8204346-1.9845581-1.2391968-2.958374-2.7937622-4.4049683c1.3827515,0.7990112,2.6173706,1.8880005,3.3181763,3.3873901  c2.1806641,4.6650391,9.5136719,21.4023438,10.9619141,24.7099609c0.7646484,1.7460938,1.1210938,3.6318359,1.03125,5.453125  c-0.1113281,2.2314453-0.8095703,3.8701172-2.0742188,4.8691406c-5.1904297,4.1015625-16.0146484,4.0605469-20.6464844,4.0546875  l-36.0322266-0.0019531l-0.7451172,0.0019531c-4.6289062,0.0019531-15.4570312,0.0449219-20.6464844-4.0546875  c-1.2646484-0.9990234-1.9628906-2.6376953-2.0742188-4.8691406c-0.0898438-1.8193359,0.2666016-3.7050781,1.03125-5.453125  c1.4482422-3.3085938,8.7832031-20.0478516,10.9628906-24.7099609C21.0296021,9.833252,22.2636108,8.7445679,23.6456299,7.9456177z   M92.4111328,39.9990234c0.0283203,0.0761719,2.5166016,6.8701172,1.0849609,12.3564453  c-0.0654297-0.0361328-0.1357422-0.0644531-0.2109375-0.0839844c-0.8232422-0.21875-1.5253906,0.7998047-2.5966797,2.3378906  c-0.3193359,0.4589844-0.6591797,0.9462891-1.0146484,1.4130859c-1.2880859,1.6953125-6.5566406,6.3007812-11.3496094,7.1123047  c-5.9560547,1.0097656-8.9160156,1.0566406-14.0556641,1.0566406H34.6201172c-5.1396484,0-8.0996094-0.046875-14.0566406-1.0566406  c-4.7919922-0.8115234-10.0595703-5.4169922-11.3476562-7.1123047c-0.3544922-0.4667969-0.6943359-0.953125-1.0136719-1.4111328  c-1.0722656-1.5390625-1.7890625-2.5595703-2.5976562-2.3398438c-0.0761719,0.0195312-0.1464844,0.0478516-0.2119141,0.0839844  C3.9609375,46.8691406,6.4482422,40.0771484,6.46875,40.0205078l1.9814453-4.3789062  c-0.8261719,1.8886719-1.2119141,3.9296875-1.1132812,5.9023438c0.125,2.5332031,0.9511719,4.4189453,2.453125,5.6054688  c5.4619141,4.3154297,16.1347656,4.2822266,21.2685547,4.2695312l36.0292969-0.0019531l0.7421875,0.0019531  c0.3242188,0.0009766,0.6689453,0.0019531,1.0341797,0.0019531c5.421875,0,15.1162109-0.2275391,20.234375-4.2714844  c1.5019531-1.1865234,2.328125-3.0722656,2.453125-5.6054688c0.0986328-1.9746094-0.2871094-4.015625-1.1132812-5.9023438  L92.4111328,39.9990234z"/><text x="0" y="115" fill="#000000" font-size="5px" font-weight="bold" font-family="'Helvetica Neue', Helvetica, Arial-Unicode, Arial, Sans-serif">Created by Alexander Skowalsky</text><text x="0" y="120" fill="#000000" font-size="5px" font-weight="bold" font-family="'Helvetica Neue', Helvetica, Arial-Unicode, Arial, Sans-serif">from the Noun Project</text></svg>