<svg xmlns="http://www.w3.org/2000/svg" viewBox="0 0 100 125" x="0px" y="0px"><defs><style>.a{isolation:isolate;}</style></defs><title>i-4</title><path d="M8.75,45.82h27.5V29.32H11.5a2.75,2.75,0,0,0-2.75,2.75L6,43.07A2.75,2.75,0,0,0,8.75,45.82Z"/><path d="M94,43.07l-2.75-11a2.75,2.75,0,0,0-2.74-2.75H41.75v16.5h49.5A2.75,2.75,0,0,0,94,43.07Z"/><path d="M6,56.93v11a2.74,2.74,0,0,0,2.75,2.74h27.5V54.19H8.75A2.74,2.74,0,0,0,6,56.93Z"/><path d="M91.25,54.19H41.75V70.68h49.5A2.74,2.74,0,0,0,94,67.94v-11A2.74,2.74,0,0,0,91.25,54.19Z"/><rect x="11.5" y="47.26" width="77.01" height="5.5"/><text x="0" y="115" fill="#000000" font-size="5px" font-weight="bold" font-family="'Helvetica Neue', Helvetica, Arial-Unicode, Arial, Sans-serif">Created by Melvin Salas</text><text x="0" y="120" fill="#000000" font-size="5px" font-weight="bold" font-family="'Helvetica Neue', Helvetica, Arial-Unicode, Arial, Sans-serif">from the Noun Project</text></svg>