<svg xmlns="http://www.w3.org/2000/svg" width="80" height="80" viewBox="0 0 80 80">
  <g id="Group_168279" data-name="Group 168279" transform="translate(-920 -403.5)">
    <circle id="Ellipse_589" data-name="Ellipse 589" cx="35" cy="35" r="35" transform="translate(925 408.5)" fill="#fff" stroke="#e5efff" stroke-width="10"/>
    <path id="signature_FILL0_wght400_GRAD0_opsz24" d="M397.339-855.081a28.73,28.73,0,0,0,7.3-7.591,15.256,15.256,0,0,0,2.626-8.232,5.323,5.323,0,0,0-.673-3.011,2.116,2.116,0,0,0-1.826-.961q-3.011,0-5.317,5.093a27.578,27.578,0,0,0-2.306,11.5q0,.9.032,1.7A10.844,10.844,0,0,0,397.339-855.081Zm3.523,10.954a8.33,8.33,0,0,1-3.523-.737,6.829,6.829,0,0,1-2.755-2.4,31.324,31.324,0,0,1-3.3,1.6q-1.7.7-3.491,1.409l-1.794-4.8q1.794-.641,3.427-1.377t3.171-1.569a24.481,24.481,0,0,1-.48-3.075q-.16-1.666-.16-3.587,0-9.225,3.651-15.278T404.77-880a6.843,6.843,0,0,1,5.445,2.466,10.255,10.255,0,0,1,2.114,6.886,19.829,19.829,0,0,1-3.491,10.89,35.132,35.132,0,0,1-9.705,9.673,3.3,3.3,0,0,0,.929.673,2.323,2.323,0,0,0,.993.224q1.666,0,3.876-2.114a21.028,21.028,0,0,0,4-5.573l4.676,2.178a12.228,12.228,0,0,0-.7,2.626,6.23,6.23,0,0,0,.064,2.691,7.367,7.367,0,0,0,1.505-1.089,14.371,14.371,0,0,0,1.762-1.922l4.036,3.139a14.393,14.393,0,0,1-3.844,3.716,7.555,7.555,0,0,1-4.036,1.409,3.874,3.874,0,0,1-2.4-.8,5.879,5.879,0,0,1-1.762-2.466,14.322,14.322,0,0,1-3.651,2.434A9.018,9.018,0,0,1,400.862-844.126Z" transform="translate(556.864 1305.563)" fill="#2a6dd9"/>
  </g>
</svg>
