<?xml version="1.0" encoding="utf-8"?>
<!-- Generator: Adobe Illustrator 28.1.0, SVG Export Plug-In . SVG Version: 6.00 Build 0)  -->
<svg version="1.1" id="Layer_1" xmlns="http://www.w3.org/2000/svg" xmlns:xlink="http://www.w3.org/1999/xlink" x="0px" y="0px"
	 viewBox="0 0 32 32" style="enable-background:new 0 0 32 32;" xml:space="preserve">
<style type="text/css">
	.st0{fill:#E7F0FC;}
	.st1{fill:#2A6DD9;}
</style>
<g transform="matrix(1, 0, 0, 1, 0, 0)">
	<path id="Rectangle_14512-2" class="st0" d="M5.3,0h21.3C29.6,0,32,2.4,32,5.3v21.3c0,2.9-2.4,5.3-5.3,5.3H5.3
		C2.4,32,0,29.6,0,26.7V5.3C0,2.4,2.4,0,5.3,0z"/>
</g>
<path id="signature_FILL0_wght400_GRAD0_opsz24" class="st1" d="M12.6,20.1c1.7-1.2,3.1-2.7,4.3-4.4c1-1.4,1.5-3.1,1.5-4.8
	c0-0.6-0.1-1.2-0.4-1.8c-0.2-0.4-0.6-0.6-1.1-0.6c-1.2,0-2.2,1-3.1,3c-0.9,2.1-1.4,4.4-1.3,6.7c0,0.3,0,0.7,0,1
	C12.5,19.5,12.6,19.8,12.6,20.1z M14.7,26.5c-0.7,0-1.4-0.1-2.1-0.4c-0.7-0.3-1.2-0.8-1.6-1.4c-0.6,0.3-1.3,0.7-1.9,0.9
	c-0.7,0.3-1.3,0.5-2,0.8l-1-2.8c0.7-0.2,1.4-0.5,2-0.8c0.6-0.3,1.3-0.6,1.9-0.9c-0.1-0.6-0.2-1.2-0.3-1.8c-0.1-0.6-0.1-1.3-0.1-2.1
	c-0.1-3.1,0.6-6.2,2.1-8.9C13,6.7,14.8,5.5,17,5.5c1.2,0,2.4,0.5,3.2,1.4c0.9,1.1,1.3,2.6,1.2,4c0,2.3-0.7,4.5-2,6.4
	c-1.5,2.2-3.4,4.2-5.7,5.6c0.2,0.2,0.3,0.3,0.5,0.4c0.2,0.1,0.4,0.1,0.6,0.1c0.9-0.1,1.7-0.6,2.3-1.2c1-0.9,1.7-2,2.3-3.3l2.7,1.3
	c-0.2,0.5-0.3,1-0.4,1.5c-0.1,0.5-0.1,1.1,0,1.6c0.3-0.2,0.6-0.4,0.9-0.6c0.4-0.3,0.7-0.7,1-1.1l2.4,1.8c-0.6,0.9-1.4,1.6-2.2,2.2
	c-0.7,0.5-1.5,0.8-2.4,0.8c-0.5,0-1-0.2-1.4-0.5c-0.5-0.4-0.8-0.9-1-1.4c-0.6,0.6-1.4,1.1-2.1,1.4C16.2,26.3,15.4,26.5,14.7,26.5
	L14.7,26.5z"/>
</svg>
