<svg width="30" height="30" viewBox="0 0 30 30" fill="none" xmlns="http://www.w3.org/2000/svg">
<path d="M23.1 14.53C22.508 13.232 20.181 9 15.111 9C10.041 9 7.715 13.232 7.121 14.53C7.04127 14.704 7 14.8931 7 15.0845C7 15.2759 7.04127 15.465 7.121 15.639C7.714 16.939 10.042 21.167 15.111 21.167C20.18 21.167 22.511 16.935 23.101 15.637C23.1803 15.4632 23.2213 15.2744 23.2211 15.0834C23.221 14.8924 23.1797 14.7036 23.1 14.53ZM15.11 19.815C10.847 19.815 8.858 16.188 8.351 15.091C8.858 13.979 10.851 10.352 15.11 10.352C19.369 10.352 21.353 13.964 21.869 15.084C21.354 16.2 19.364 19.815 15.111 19.815H15.11Z" fill="#2A6DD9"/>
<path d="M15.111 11.704C14.4425 11.704 13.789 11.9022 13.2332 12.2736C12.6773 12.645 12.2441 13.1729 11.9883 13.7905C11.7325 14.4081 11.6655 15.0877 11.7959 15.7434C11.9264 16.3991 12.2483 17.0013 12.721 17.474C13.1937 17.9467 13.7959 18.2686 14.4516 18.399C15.1072 18.5295 15.7868 18.4625 16.4045 18.2067C17.0221 17.9509 17.55 17.5177 17.9214 16.9618C18.2928 16.406 18.491 15.7525 18.491 15.084C18.491 14.1876 18.1349 13.3278 17.501 12.694C16.8671 12.0601 16.0074 11.704 15.111 11.704ZM15.111 17.112C14.7099 17.112 14.3178 16.993 13.9843 16.7702C13.6508 16.5474 13.3909 16.2306 13.2374 15.8601C13.0839 15.4895 13.0437 15.0817 13.122 14.6883C13.2002 14.295 13.3934 13.9336 13.677 13.65C13.9606 13.3664 14.322 13.1732 14.7154 13.095C15.1087 13.0167 15.5165 13.0569 15.8871 13.2104C16.2576 13.3639 16.5744 13.6238 16.7972 13.9573C17.02 14.2908 17.139 14.6829 17.139 15.084C17.139 15.6218 16.9253 16.1377 16.545 16.518C16.1647 16.8983 15.6489 17.112 15.111 17.112Z" fill="#2A6DD9"/>
</svg>
