<svg id="Table_CTA" data-name="Table CTA" xmlns="http://www.w3.org/2000/svg" width="32" height="32" viewBox="0 0 32 32">
  <g id="Component_2262_1" data-name="Component 2262 – 1">
    <rect id="Rectangle_9214" data-name="Rectangle 9214" width="32" height="32" rx="5" fill="#eaf3ff"/>
    <path id="Path_53265" data-name="Path 53265" d="M6.9,14a6.568,6.568,0,0,1-4.623-1.75A7.123,7.123,0,0,1,.01,7.875a.6.6,0,0,1,.107-.467.542.542,0,0,1,.418-.214.51.51,0,0,1,.409.146.689.689,0,0,1,.214.4,6.048,6.048,0,0,0,1.906,3.636A5.437,5.437,0,0,0,6.9,12.834,5.659,5.659,0,0,0,11.082,11.1a5.75,5.75,0,0,0,1.712-4.2,5.427,5.427,0,0,0-1.731-4.074A5.8,5.8,0,0,0,6.9,1.164a5.3,5.3,0,0,0-2.48.6,6.783,6.783,0,0,0-2.014,1.6H3.865a.584.584,0,0,1,0,1.167H.966a.565.565,0,0,1-.584-.545V1.069a.584.584,0,1,1,1.167-.048.384.384,0,0,1,0,.048V2.547A7.385,7.385,0,0,1,3.949.68,6.616,6.616,0,0,1,6.9,0,6.961,6.961,0,0,1,9.642.544a7.19,7.19,0,0,1,2.247,1.488,6.993,6.993,0,0,1,1.517,2.207,6.69,6.69,0,0,1,.554,2.722A6.84,6.84,0,0,1,13.406,9.7a7.051,7.051,0,0,1-1.517,2.236,7.251,7.251,0,0,1-2.247,1.507A6.842,6.842,0,0,1,6.9,14" transform="translate(9 9)" fill="#2a6dd9"/>
  </g>
</svg>
