<svg width="30" height="30" viewBox="0 0 30 30" fill="none" xmlns="http://www.w3.org/2000/svg">
<g clip-path="url(#clip0_15_22)">
<path d="M5 0H25C27.8 0 30 2.2 30 5V25C30 27.8 27.8 30 25 30H5C2.2 30 0 27.8 0 25V5C0 2.2 2.2 0 5 0Z" fill="#E7F0FC"/>
<path d="M9.99385 22C9.4366 22 8.96498 21.807 8.57898 21.421C8.19299 21.035 8 20.5646 8 20.0098V18.0123H10.3926V7L11.497 7.95092L12.6166 7L13.7362 7.95092L14.8558 7L15.9755 7.95092L17.0951 7L18.2147 7.95092L19.3344 7L20.454 7.95092L21.5583 7V20.0061C21.5583 20.5634 21.3653 21.035 20.9793 21.421C20.5933 21.807 20.1217 22 19.5644 22H9.99385ZM19.5644 20.8037C19.7904 20.8037 19.9798 20.7273 20.1327 20.5744C20.2856 20.4215 20.362 20.2321 20.362 20.0061V8.84046H11.5889V18.0123H18.7669V20.0061C18.7669 20.2321 18.8433 20.4215 18.9962 20.5744C19.149 20.7273 19.3385 20.8037 19.5644 20.8037ZM12.5399 11.8313V10.635H17.0644V11.8313H12.5399ZM12.5399 14.2239V13.0276H17.0644V14.2239H12.5399ZM18.7209 11.9386C18.5256 11.9386 18.3592 11.8699 18.2216 11.7323C18.0841 11.5948 18.0154 11.4284 18.0154 11.2331C18.0154 11.0378 18.0841 10.8714 18.2216 10.7339C18.3592 10.5964 18.5256 10.5276 18.7209 10.5276C18.9162 10.5276 19.0826 10.5964 19.2201 10.7339C19.3576 10.8714 19.4264 11.0378 19.4264 11.2331C19.4264 11.4284 19.3576 11.5948 19.2201 11.7323C19.0826 11.8699 18.9162 11.9386 18.7209 11.9386ZM18.7209 14.3313C18.5256 14.3313 18.3592 14.2625 18.2216 14.125C18.0841 13.9875 18.0154 13.8211 18.0154 13.6258C18.0154 13.4305 18.0841 13.2641 18.2216 13.1265C18.3592 12.989 18.5256 12.9202 18.7209 12.9202C18.9162 12.9202 19.0826 12.989 19.2201 13.1265C19.3576 13.2641 19.4264 13.4305 19.4264 13.6258C19.4264 13.8211 19.3576 13.9875 19.2201 14.125C19.0826 14.2625 18.9162 14.3313 18.7209 14.3313ZM9.99385 20.8037H17.5706V19.2086H9.1963V20.0061C9.1963 20.2321 9.27274 20.4215 9.4256 20.5744C9.57846 20.7273 9.76788 20.8037 9.99385 20.8037Z" fill="#2A6DD9"/>
</g>
<defs>
<clipPath id="clip0_15_22">
<rect width="30" height="30" fill="white"/>
</clipPath>
</defs>
</svg>
