<svg xmlns="http://www.w3.org/2000/svg" width="24" height="24" viewBox="0 0 24 24">
  <g id="Group_69789" data-name="Group 69789" transform="translate(275.571 -278) rotate(90)">
    <rect id="Rectangle_12251" data-name="Rectangle 12251" width="24" height="24" transform="translate(278 251.571)" fill="#fff" opacity="0"/>
    <path id="view_list_FILL0_wght400_GRAD0_opsz24_1_" data-name="view_list_FILL0_wght400_GRAD0_opsz24 (1)" d="M87-786H98v-2.675H87Zm-5-9.325h3V-798H82Zm0,4.675h3v-2.675H82ZM82-786h3v-2.675H82Zm5-4.65H98v-2.675H87Zm0-4.675H98V-798H87ZM82-784a1.926,1.926,0,0,1-1.413-.587A1.926,1.926,0,0,1,80-786v-12a1.926,1.926,0,0,1,.587-1.413A1.926,1.926,0,0,1,82-800H98a1.926,1.926,0,0,1,1.412.587A1.926,1.926,0,0,1,100-798v12a1.926,1.926,0,0,1-.588,1.413A1.926,1.926,0,0,1,98-784Z" transform="translate(1082 353.571) rotate(-90)" fill="#2a6dd9"/>
  </g>
</svg>
