<svg width="704" height="564" viewBox="0 0 704 564" fill="none" xmlns="http://www.w3.org/2000/svg">
<path d="M164.267 0C73.5432 0 0 73.5432 0 164.267V398.933C0 489.657 73.5432 563.2 164.267 563.2H469.333C482.292 563.2 492.8 552.692 492.8 539.733C492.8 526.774 482.292 516.267 469.333 516.267H164.267C99.4665 516.267 46.9333 463.734 46.9333 398.933V187.733H492.8C505.759 187.733 516.267 177.226 516.267 164.267C516.267 151.308 505.759 140.8 492.8 140.8H49.28C60.1543 87.245 107.501 46.9333 164.267 46.9333H539.733C596.499 46.9333 643.846 87.245 654.72 140.8H610.133C597.174 140.8 586.667 151.308 586.667 164.267C586.667 177.226 597.174 187.733 610.133 187.733H657.067V328.533C657.067 341.492 667.574 352 680.533 352C693.492 352 704 341.492 704 328.533V164.267C704 73.5432 630.457 0 539.733 0H164.267Z" fill="#2A6DD9"/>
<path d="M638.454 382.332C629.288 373.171 614.432 373.171 605.266 382.332C596.104 391.499 596.104 406.354 605.266 415.521L623.871 434.127H516.26C503.301 434.127 492.793 444.634 492.793 457.593C492.793 470.552 503.301 481.06 516.26 481.06H623.871L605.266 499.666C596.104 508.832 596.104 523.688 605.266 532.854C614.432 542.016 629.287 542.016 638.454 532.854L697.121 474.188C706.282 465.021 706.282 450.166 697.121 440.999L638.454 382.332Z" fill="#2A6DD9"/>
<path d="M93.8665 258.133C93.8665 245.174 104.374 234.667 117.333 234.667H211.2C224.159 234.667 234.666 245.174 234.666 258.133C234.666 271.092 224.159 281.6 211.2 281.6H117.333C104.374 281.6 93.8665 271.092 93.8665 258.133Z" fill="#2A6DD9"/>
</svg>
