<svg id="Group_64714" data-name="Group 64714" xmlns="http://www.w3.org/2000/svg" width="13.589" height="16.307" viewBox="0 0 13.589 16.307">
  <circle id="Ellipse_560" data-name="Ellipse 560" cx="5.285" cy="5.285" r="5.285" transform="translate(1.51 3.021)" fill="#fff"/>
  <path id="shield-check" d="M14.192,1.8,8.794.009,3.4,1.8A2.038,2.038,0,0,0,2,3.733V8.156c0,5.112,6.251,7.935,6.519,8.053l.241.107.25-.083c.269-.09,6.58-2.249,6.58-8.077V3.733a2.038,2.038,0,0,0-1.4-1.935ZM9.1,9.508a1.273,1.273,0,0,1-.907.376H8.167a1.272,1.272,0,0,1-.914-.408L5.686,7.845l.98-.939L8.191,8.5l3.52-3.52.961.961Z" transform="translate(-2 -0.009)" fill="#52bb9c"/>
</svg>
