<svg xmlns="http://www.w3.org/2000/svg" width="20.826" height="20.826" viewBox="0 0 20.826 20.826">
  <path id="captive_portal_FILL0_wght400_GRAD0_opsz48" d="M88.174,194.978a12.36,12.36,0,0,1-1.119-2.148,14.654,14.654,0,0,1-.729-2.512H82.395a8.588,8.588,0,0,0,5.779,4.66Zm-6.3-6.222H86.04q-.078-.625-.1-1.132t-.026-1.158q0-.547.013-1.106t.091-1.263H81.874a7.338,7.338,0,0,0-.247,1.158,10.086,10.086,0,0,0-.065,1.211,9.123,9.123,0,0,0,.065,1.171A7.59,7.59,0,0,0,81.874,188.756Zm.521-6.222h3.9a15.6,15.6,0,0,1,.781-2.577,12.446,12.446,0,0,1,1.119-2.135,11.438,11.438,0,0,0-3.514,1.809A9.336,9.336,0,0,0,82.395,182.534Zm5.519,0h5.024a12.93,12.93,0,0,0-1-2.877,8.665,8.665,0,0,0-1.523-2.148,8.872,8.872,0,0,0-1.523,2.213A13.2,13.2,0,0,0,87.914,182.534Zm6.638,0h3.879a9.324,9.324,0,0,0-2.408-2.89,10.423,10.423,0,0,0-3.371-1.8,11.817,11.817,0,0,1,1.106,2.135A18.859,18.859,0,0,1,94.552,182.534Zm-4.139,14.292a10.494,10.494,0,0,1-4.087-.794,10.163,10.163,0,0,1-3.306-2.2,10.375,10.375,0,0,1-2.213-3.293A10.253,10.253,0,0,1,80,186.465a10.441,10.441,0,0,1,.807-4.1,10.3,10.3,0,0,1,2.213-3.319,10.515,10.515,0,0,1,3.306-2.226,10.6,10.6,0,0,1,8.174,0,10.515,10.515,0,0,1,3.306,2.226,10.3,10.3,0,0,1,2.213,3.319,10.441,10.441,0,0,1,.807,4.1q0,.443-.026.885a7.687,7.687,0,0,1-.1.885H99.082a6.385,6.385,0,0,0,.143-.846q.039-.4.039-.924a10.088,10.088,0,0,0-.065-1.211,7.339,7.339,0,0,0-.247-1.158H94.786q.078.781.117,1.289t.039,1.08q0,.364-.013.742t-.065,1.028H93.277q.052-.547.078-.937t.026-.833q0-.547-.026-1.054t-.13-1.315h-5.6q-.1.807-.13,1.315t-.026,1.054q0,.521.026,1t.13,1.289h4.608v1.562H87.914a16.808,16.808,0,0,0,1.093,3.1,5.725,5.725,0,0,0,1.406,1.848,8.67,8.67,0,0,0,1-1.276,13.345,13.345,0,0,0,.82-1.458v4.139q-.443.078-.9.117T90.413,196.826Zm8.278-1.015-3.332-3.332v2.681H93.8V189.8H99.16v1.562H96.452l3.332,3.332Z" transform="translate(-80 -176)" fill="#2a6dd9"/>
</svg>
