<svg xmlns="http://www.w3.org/2000/svg" version="1.1" viewBox="-5.0 -10.0 110.0 135.0">
 <path d="m50 14.582c-12.316 0-23.168 6.3008-29.516 15.848-0.63672 0.95703-1.9297 1.2148-2.8867 0.58203-0.95703-0.64062-1.2188-1.9336-0.58203-2.8906 7.0938-10.668 19.223-17.703 32.984-17.703 18.285 0 33.695 12.426 38.23 29.289 0.88281 3.2812 1.3516 6.7344 1.3516 10.293 0 4.2305-0.67188 8.9922-1.9102 12.984 2.2891 1.3789 3.3867 4.0039 2.9258 6.5l2.1094 1.2188c2.9922 1.7266 4.0156 5.5508 2.2891 8.5391l-4.168 7.2148c-1.7266 2.9922-5.5469 4.0156-8.5352 2.2891l-2.1133-1.2227c-1.957 1.6758-4.832 2.0234-7.1875 0.66406l-3.5625-2.0547c-2.9883-1.7305-4.0156-5.5508-2.2891-8.5391l8.3359-14.434c1.7148-2.9727 5.5039-4 8.4844-2.3203 0.94922-3.4062 1.457-7.3281 1.457-10.84 0-1.4531-0.089844-2.8867-0.25781-4.2969-0.48047 0.30859-1 0.55859-1.5625 0.74609-3.6016 1.1875-7.5039-0.78906-8.7031-4.4297-0.027343-0.085937-0.054687-0.17188-0.078125-0.25781-0.015625-0.046875-0.027344-0.085938-0.042968-0.12891-0.83984-2.4844-2.043-4.8008-3.5469-6.8867-0.67187-0.93359-0.46094-2.2344 0.47266-2.9102 0.93359-0.67188 2.2344-0.45703 2.9062 0.47266 1.7461 2.4219 3.1406 5.1094 4.1133 7.9883 0.023438 0.066406 0.042969 0.12891 0.066406 0.19141 0.007813 0.03125 0.019532 0.0625 0.027344 0.097657 0.011719 0.042968 0.023438 0.085937 0.039062 0.12891 0.47656 1.4453 2.0117 2.2461 3.4414 1.7773 0.96875-0.32031 1.6289-1.1406 1.8047-2.0898-4.1875-14.891-17.875-25.82-34.098-25.82zm36.254 54.801c0.57422-0.99609 0.23438-2.2695-0.76172-2.8477 0 0-1.3945-0.80469-1.4141-0.8125l-2.1484-1.2422c-0.99609-0.57812-2.2695-0.23438-2.8477 0.76172l-8.332 14.434c-0.57422 0.99609-0.23438 2.2734 0.76172 2.8477l3.5625 2.0547c0.99609 0.57422 2.2695 0.23438 2.8477-0.76172zm-3.6836 14.715 1.8047 1.0391c0.99609 0.57422 2.2695 0.23438 2.8477-0.76172l4.1641-7.2148c0.57422-1 0.23438-2.2734-0.76172-2.8477l-1.8047-1.043zm-62.75 3.4258-2.1133 1.2227c-2.9883 1.7266-6.8086 0.70312-8.5352-2.2891l-4.168-7.2148c-1.7266-2.9883-0.70312-6.8125 2.2891-8.5391l2.1094-1.2188c-0.46094-2.4961 0.63672-5.1211 2.9258-6.5-1.2383-3.9922-1.9102-8.7539-1.9102-12.984 0-3.5469 0.46484-6.9844 1.3438-10.254 0.003906-0.027344 0.011719-0.050782 0.019531-0.078125 0.26172-0.96875 0.55859-1.9258 0.89062-2.8633 0.38281-1.082 1.5742-1.6523 2.6602-1.2695 1.0859 0.38281 1.6523 1.5742 1.2695 2.6602-0.25781 0.72656-0.49219 1.4609-0.70312 2.207 0.17969 0.94531 0.83984 1.7695 1.8086 2.0898 1.4297 0.46875 2.9648-0.33203 3.4414-1.7773 0.015624-0.042969 0.027343-0.085938 0.039062-0.12891 0.007812-0.035157 0.019531-0.066407 0.027344-0.097657 0.023437-0.0625 0.042968-0.125 0.066406-0.19141 4.0469-11.973 15.383-20.605 28.719-20.605 7.1992 0 13.816 2.5156 19.016 6.7148 0.89844 0.72266 1.0352 2.0352 0.3125 2.9297-0.72266 0.89453-2.0352 1.0352-2.9297 0.3125-4.4844-3.6211-10.191-5.7891-16.398-5.7891-11.504 0-21.277 7.4414-24.773 17.773-0.015624 0.042969-0.027343 0.082032-0.039062 0.12109-0.023438 0.085938-0.050781 0.17578-0.082031 0.26562-1.1992 3.6406-5.1016 5.6172-8.7031 4.4297-0.5625-0.1875-1.082-0.4375-1.5625-0.74609-0.16797 1.4102-0.25781 2.8438-0.25781 4.2969 0 3.5117 0.50781 7.4336 1.457 10.84 2.9805-1.6797 6.7695-0.65234 8.4844 2.3203l8.3359 14.434c1.7266 2.9883 0.69922 6.8086-2.2891 8.5391l-3.5625 2.0547c-2.3555 1.3594-5.2305 1.0117-7.1875-0.66406zm-8.6406-14.254-1.8047 1.043c-0.99609 0.57422-1.3359 1.8477-0.76172 2.8477l4.1641 7.2148c0.57812 0.99609 1.8516 1.3359 2.8477 0.76172l1.8047-1.0391zm4.6836-7.5156-1.3555 0.78125c-0.99609 0.57812-1.3359 1.8516-0.76172 2.8477l8.332 14.434c0.57812 0.99609 1.8516 1.3359 2.8477 0.76172l3.5625-2.0547c0.99609-0.57422 1.3359-1.8516 0.76172-2.8477l-8.332-14.434c-0.57812-0.99609-1.8516-1.3398-2.8477-0.76172 0 0-2.1875 1.2617-2.207 1.2734z" fill-rule="evenodd"/>
<text x="0.0" y="117.5" font-size="5.0" font-weight="bold" font-family="Arbeit Regular, Helvetica, Arial-Unicode, Arial, Sans-serif" fill="#000000">Created by Alfan Zulkarnain</text><text x="0.0" y="122.5" font-size="5.0" font-weight="bold" font-family="Arbeit Regular, Helvetica, Arial-Unicode, Arial, Sans-serif" fill="#000000">from Noun Project</text></svg>