<svg xmlns="http://www.w3.org/2000/svg" data-name="Layer 1" viewBox="0 0 400 500" x="0px" y="0px"><title>nile line</title><path d="M226.59,284.37c-33.16,0-68.39-.65-96.79-1.92C99.62,281.1,72,274.68,47.6,263.36c-17.65-8.2-30.14-17.6-35.48-23.15-8.89-9.24-3-27,1.41-32.6,2.63-3.29,13.14-6.07,43.13-13.63,16.41-4.14,36.83-9.29,60.42-15.9,57.94-16.25,134.27-61.65,135-62.11l1.18-.7,1.22.61c.83.42,20.41,10.25,27.78,17.62,6.45,6.45.91,15.31-2.07,20.07-.31.5-.66,1.06-.94,1.53,13.49,13.1,25.66,19.25,36.16,18.29,12.19-1.1,19.69-11.87,22.9-16.47,4.94-7.09,20.55-27.68,27.33-29.38a4.68,4.68,0,0,1,5,1.51c2.89,3.68.27,12-2.19,16.74-3.29,6.27-1.84,14.89,4.7,28,6.75,13.5,5.1,33.66,4.47,39.29,1.7,1.6,4.11,5.16,4.82,12.74.41,4.29,2.78,7.91,5.07,11.4,2.6,4,5.3,8.07,4.91,13-.88,11.54-47.7,26.75-62.44,30C317.24,283,274,284.37,226.59,284.37ZM253.48,121c-10,5.87-80.48,46.62-135,61.92-23.66,6.63-44.11,11.79-60.55,15.93-20.62,5.2-38.42,9.69-40.46,11.92-3,3.77-8.43,19-1.7,26,.36.37,36.67,37.24,114.31,40.71,81.08,3.61,180.79,1.87,198.91-2.13,28-6.17,58.19-21,58.54-25.5.25-3.26-1.77-6.34-4.11-9.9-2.51-3.82-5.35-8.15-5.87-13.69-.7-7.46-3.21-9.55-3.6-9.83l-1.89-.65.52-1.95c0-.23,3.23-23.74-3.82-37.82-7.32-14.66-8.76-24.69-4.65-32.53,2.54-4.85,3.21-9.64,2.79-11.06-3.31.89-15.37,14.41-24.41,27.37-3.6,5.18-12,17.29-26.55,18.61-12.33,1.1-26.17-5.87-41.18-20.76-1.8-1.78-.45-4,1.27-6.7,3.24-5.19,6.13-10.53,2.78-13.88C272.94,131.22,257.86,123.23,253.48,121Zm24.75,33.1Z"/><path d="M104.31,251.63c-55.18,0-95.11-24.43-95.53-24.69l2.64-4.25c.43.26,43.36,26.48,101.38,23.74,35.09-1.65,66.85-7.78,92.37-12.69,17.4-3.36,32.43-6.26,43.3-6.64,10.4-.38,26.47,1.26,43.48,3,25.32,2.58,54,5.51,64.89,1.52,16.77-6.15,16.09-21.09,16.08-21.24l5-.29a25.72,25.72,0,0,1-2,10.39c-2.09,5.1-6.8,12-17.32,15.84-11.94,4.37-40,1.52-67.12-1.24-16.83-1.72-32.72-3.33-42.79-3-10.49.38-25.34,3.24-42.53,6.55-25.68,5-57.63,11.11-93.08,12.78Q108.62,251.63,104.31,251.63Z"/><path d="M291.78,279.77a14,14,0,0,1-6.52-2.15H231.34a28.09,28.09,0,0,1-5.67,1.82,5.32,5.32,0,0,1-4.36-.8,4.8,4.8,0,0,1-1.24-1.33H169a48.13,48.13,0,0,1-4.78,2.05c-2.35.79-4.33-.68-5.54-2.78L102.45,273a25.38,25.38,0,0,1-6.06,1.81c-2.81.36-4.82-1.87-5.91-4.33-49.1-9.11-78.29-30.17-78.49-30.37l1.77-1.76,1.57-2c.26.2,29.54,20.82,77.45,29.42l1.54.27.43,1.5a5.77,5.77,0,0,0,1.19,2.24,24.6,24.6,0,0,0,5-1.64l.56-.26.63,0,59.94,3.84.56,1.54a4.82,4.82,0,0,0,.57,1.08c1.41-.55,3.35-1.48,4.07-1.84l.52-.26h56.33l.07,2.22,0,.05a1.62,1.62,0,0,0,.43,0,22.88,22.88,0,0,0,5-1.66l.53-.26h56.54l.63.42c1.83,1.21,4.09,2,4.67,1.71a38.87,38.87,0,0,1,7.45-2.39l.26-.05H300c.66,0,63.85-.23,86.55-21l3.38,3.69c-23.59,21.58-84.39,22.3-89.65,22.32a31.79,31.79,0,0,0-6,1.92A5.51,5.51,0,0,1,291.78,279.77Z"/><path d="M90.4,234.06c-7.83,0-15.62-1.32-20.93-6C65.21,224.37,63,218.94,63,212a9.21,9.21,0,0,1,1-4.13A8.92,8.92,0,0,1,66.2,205c2.3-2,7.25-6,14.4-11.08,9.82-7,22.64-11.91,23.18-12.12h0l.19-.06,1.6,4.73-.1,0c-1.81.9-8.88,7.29-8.73,10.85,0,.36.06,1.34,2.38,2.17,6.12,2.22,69.78,1,111.9.15,62-1.21,62-1.17,63.15,1l.71,1.36-.9,1.31c-2.19,3.07-4.77,3.88-39.05,9.43l-18.1,2.94c-36.92,6-92.72,15.09-104.88,16.41-1.34.14-2.83.34-4.44.55A134.74,134.74,0,0,1,90.4,234.06Zm2.91-42A87.13,87.13,0,0,0,83.5,198c-7.27,5.15-12.26,9.28-14.07,10.82a4.18,4.18,0,0,0-1,1.28,4.27,4.27,0,0,0-.43,1.87c0,5.57,1.59,9.62,4.77,12.4,7.72,6.76,23.6,4.7,34.11,3.34,1.65-.21,3.17-.41,4.53-.56,12-1.31,67.76-10.37,104.62-16.37l18.11-3c10.34-1.67,17.8-2.92,23.14-3.91-11.69.08-29.09.42-46.15.76-60.45,1.18-107.22,1.9-113.7-.45-5.08-1.83-5.74-5.3-5.68-7.2A11.09,11.09,0,0,1,93.31,192.05Z"/><text x="0" y="415" fill="#000000" font-size="5px" font-weight="bold" font-family="'Helvetica Neue', Helvetica, Arial-Unicode, Arial, Sans-serif">Created by Alina Bulyha</text><text x="0" y="420" fill="#000000" font-size="5px" font-weight="bold" font-family="'Helvetica Neue', Helvetica, Arial-Unicode, Arial, Sans-serif">from the Noun Project</text></svg>