<svg xmlns="http://www.w3.org/2000/svg" width="20.812" height="20.812" viewBox="0 0 20.812 20.812">
  <path id="calendar-lines" d="M16.476,1.734h-.867V.867a.867.867,0,1,0-1.734,0v.867H6.937V.867A.867.867,0,0,0,5.2.867v.867H4.336A4.341,4.341,0,0,0,0,6.07V16.476a4.341,4.341,0,0,0,4.336,4.336h12.14a4.341,4.341,0,0,0,4.336-4.336V6.07A4.341,4.341,0,0,0,16.476,1.734ZM4.336,3.469h12.14a2.6,2.6,0,0,1,2.6,2.6v.867H1.734V6.07A2.6,2.6,0,0,1,4.336,3.469Zm12.14,15.609H4.336a2.6,2.6,0,0,1-2.6-2.6v-7.8H19.077v7.8A2.6,2.6,0,0,1,16.476,19.077Zm0-6.937a.867.867,0,0,1-.867.867H5.2a.867.867,0,1,1,0-1.734H15.609A.867.867,0,0,1,16.476,12.14Zm-6.07,3.469a.867.867,0,0,1-.867.867H5.2a.867.867,0,1,1,0-1.734H9.539A.867.867,0,0,1,10.406,15.609Z" fill="#98b4e0"/>
</svg>
