<svg xmlns="http://www.w3.org/2000/svg" width="14" height="13.214" viewBox="0 0 14 13.214">
  <g id="Group_65560" data-name="Group 65560" transform="translate(-100 -837.56)">
    <path id="Path_45470" data-name="Path 45470" d="M0,5.133V4.442c.087-.005.052-.072.051-.114S.023,4.273.03,4.238a4.956,4.956,0,0,1,.5-1.415,4.973,4.973,0,0,1,1.6-1.743A6.48,6.48,0,0,1,3.991.218,2.627,2.627,0,0,1,4.44.107,3.8,3.8,0,0,0,4.878.051,4.286,4.286,0,0,1,5.78,0,3.452,3.452,0,0,1,6.5.039a5.7,5.7,0,0,1,.607.079,10.081,10.081,0,0,1,1.278.42,5.977,5.977,0,0,1,1.52.96,4.866,4.866,0,0,1,1.031,1.266,3.941,3.941,0,0,1,.547,1.926.356.356,0,0,0,0,.083,1.474,1.474,0,0,1,.008.505A4.278,4.278,0,0,1,11.24,6.31a5.258,5.258,0,0,1-.65,1.17,4.886,4.886,0,0,1-.774.807,5.032,5.032,0,0,1-.9.631,6.063,6.063,0,0,1-1.9.686,6.4,6.4,0,0,1-1.083.125c-1.793,0-3.587-.007-5.38,0A.535.535,0,0,1,0,9.394V9.173a.938.938,0,0,1,.217-.29c.314-.311.624-.625.939-.935.055-.055.068-.084.006-.151A4.024,4.024,0,0,1,.849,7.4,4.492,4.492,0,0,1,.122,5.909,2.884,2.884,0,0,0,0,5.382V5.272c.048-.046.007-.092,0-.138m5.8-.72H8.384a.437.437,0,0,0,.449-.4.41.41,0,0,0-.279-.437,1.267,1.267,0,0,0-.347-.046c-1.636,0-3.272,0-4.907,0a1.986,1.986,0,0,0-.325.03.421.421,0,0,0-.1.78.926.926,0,0,0,.364.075c.852,0,1.7,0,2.557,0M4.916,6.185c.557,0,1.115,0,1.672,0A.576.576,0,0,0,6.9,6.1a.533.533,0,0,0,.174-.51A.556.556,0,0,0,6.544,5.3q-1.672,0-3.344,0a.655.655,0,0,0-.35.084.4.4,0,0,0-.191.409.4.4,0,0,0,.251.346.9.9,0,0,0,.321.043c.562,0,1.124,0,1.686,0" transform="translate(100 837.559)" fill="#fff"/>
    <path id="Path_45471" data-name="Path 45471" d="M123.512,185.7a2.469,2.469,0,0,0-.475-.08,6.34,6.34,0,0,1-2.914-1.29,5.312,5.312,0,0,1-1.114-1.259c.042-.044.085-.027.123-.027.844,0,1.687.007,2.531,0a7.006,7.006,0,0,0,2.5-.5,7.492,7.492,0,0,0,1.4-.748,5.907,5.907,0,0,0,1.907-2.066,5.337,5.337,0,0,0,.542-1.521c.026-.121.01-.271.032-.385a1.371,1.371,0,0,1,.078-.468,4.953,4.953,0,0,1,.943,1,4.3,4.3,0,0,1,.659,1.378,4.158,4.158,0,0,1,.132.932,4.341,4.341,0,0,1-.224,1.555,4.422,4.422,0,0,1-.912,1.533c-.066.073-.059.114.007.179.319.313.634.631.95.947a.451.451,0,0,1-.1.8.146.146,0,0,0-.028.027Z" transform="translate(-15.872 665.077)" fill="#fff"/>
  </g>
</svg>
