<svg width="686" height="686" viewBox="0 0 686 686" fill="none" xmlns="http://www.w3.org/2000/svg">
<path d="M590.397 177.744L444.42 31.0721C432.603 19.2555 417.31 13 400.626 13H137.867C103.804 13 76 40.8027 76 74.8665V610.811C76 644.874 103.803 672.678 137.867 672.678H547.298C581.36 672.678 609.164 644.875 609.164 610.811V221.539C609.164 204.855 602.216 189.56 590.4 177.744H590.397ZM422.176 85.9899L536.177 199.991H433.998C427.045 199.991 422.181 194.429 422.181 188.175L422.176 85.9899ZM546.604 619.154H137.868C133.698 619.154 130.221 615.678 130.221 611.508V74.8675C130.221 70.6975 133.698 67.2209 137.868 67.2209H367.956V188.175C367.956 225.017 397.844 254.211 433.992 254.211H554.248V611.507C554.946 615.677 551.469 619.154 546.606 619.154L546.604 619.154Z" fill="white"/>
<path d="M408.968 355.002L311.648 459.966L275.5 421.04C265.075 409.917 248.39 409.223 237.266 419.648C226.143 430.073 225.45 446.758 235.875 457.882L291.486 518.357C296.355 523.918 303.996 527.395 311.643 527.395C319.289 527.395 326.243 524.616 331.799 519.055L448.588 391.846C459.013 380.723 458.32 364.043 447.196 353.613C436.078 343.188 419.394 343.881 408.968 355.004L408.968 355.002Z" fill="white"/>
</svg>
