<svg width="30" height="30" viewBox="0 0 30 30" fill="none" xmlns="http://www.w3.org/2000/svg">
<path fill-rule="evenodd" clip-rule="evenodd" d="M18.721 17.347C19.045 17.347 19.307 17.587 19.307 17.884V20.844C19.307 21.271 19.122 21.682 18.793 21.984C18.463 22.287 18.015 22.457 17.549 22.457H8.758C8.292 22.457 7.844 22.287 7.515 21.984C7.35466 21.8402 7.22606 21.6646 7.13739 21.4683C7.04872 21.272 7.00193 21.0594 7 20.844V12.774C7 12.346 7.185 11.936 7.515 11.633C7.85587 11.3259 8.29918 11.1572 8.758 11.16H11.981C12.137 11.16 12.286 11.217 12.396 11.318C12.506 11.418 12.567 11.556 12.567 11.698C12.567 11.841 12.506 11.978 12.396 12.078C12.2822 12.1806 12.1342 12.237 11.981 12.236H8.758C8.60514 12.2353 8.45752 12.2916 8.344 12.394C8.29051 12.4419 8.24759 12.5005 8.21798 12.5659C8.18836 12.6313 8.1727 12.7022 8.172 12.774V20.844C8.172 20.986 8.234 21.123 8.344 21.224C8.454 21.324 8.603 21.381 8.758 21.381H17.549C17.7019 21.3817 17.8495 21.3254 17.963 21.223C18.073 21.123 18.135 20.986 18.135 20.843V17.884C18.135 17.587 18.397 17.347 18.721 17.347Z" fill="#3584CF"/>
<path fill-rule="evenodd" clip-rule="evenodd" d="M17.173 9.16201L20.762 12.629L14.444 18.733C14.3376 18.8353 14.1956 18.8923 14.048 18.892H11.251C11.1787 18.8933 11.1068 18.8804 11.0395 18.8539C10.9722 18.8274 10.9108 18.7879 10.8588 18.7377C10.8068 18.6874 10.7652 18.6274 10.7364 18.561C10.7076 18.4947 10.6922 18.4233 10.691 18.351V15.648C10.691 15.505 10.751 15.368 10.856 15.266L17.173 9.16201ZM17.965 8.39801L18.919 7.47501C19.2384 7.16915 19.6638 6.99891 20.106 7.00001C20.551 7.00001 20.978 7.17001 21.293 7.47501L22.508 8.64901C22.823 8.95301 23 9.36501 23 9.79501C23 10.225 22.823 10.638 22.508 10.942L21.553 11.864L17.965 8.39801Z" fill="#3584CF"/>
</svg>
