<svg xmlns="http://www.w3.org/2000/svg" width="99.087" height="99.086" viewBox="0 0 99.087 99.086">
  <g id="Group_166558" data-name="Group 166558" transform="translate(-1092.913 -566.865)">
    <path id="table_rows_FILL0_wght400_GRAD0_opsz24" d="M192.9-753.77v-13.981H127.654v13.981Zm0-23.3v-18.641H127.654v18.641Zm0-27.961v-13.981H127.654v13.981ZM127.654-744.45a8.975,8.975,0,0,1-6.583-2.738,8.975,8.975,0,0,1-2.738-6.582v-65.243a8.975,8.975,0,0,1,2.738-6.583,8.975,8.975,0,0,1,6.583-2.738H192.9a8.975,8.975,0,0,1,6.583,2.738,8.975,8.975,0,0,1,2.738,6.583v65.243a8.975,8.975,0,0,1-2.738,6.582,8.975,8.975,0,0,1-6.583,2.738Z" transform="translate(974.58 1410.401)" fill="#f4f4f4"/>
    <circle id="Ellipse_857" data-name="Ellipse 857" cx="25" cy="25" r="25" transform="translate(1142 566.865)" fill="#f4f4f4"/>
    <path id="close_FILL0_wght400_GRAD0_opsz24" d="M202.385-736.146,200-738.531l9.542-9.542L200-757.615,202.385-760l9.542,9.542L221.469-760l2.385,2.385-9.542,9.542,9.542,9.542-2.385,2.385-9.542-9.542Z" transform="translate(954.711 1339.711)" fill="#fff"/>
  </g>
</svg>
