<?xml version="1.0" encoding="UTF-8" standalone="no"?>
<!DOCTYPE svg PUBLIC "-//W3C//DTD SVG 1.1//EN" "http://www.w3.org/Graphics/SVG/1.1/DTD/svg11.dtd">
<svg width="100%" height="100%" viewBox="0 0 500 500" version="1.1" xmlns="http://www.w3.org/2000/svg" xmlns:xlink="http://www.w3.org/1999/xlink" xml:space="preserve" xmlns:serif="http://www.serif.com/" style="fill-rule:evenodd;clip-rule:evenodd;stroke-linejoin:round;stroke-miterlimit:2;">
    <g transform="matrix(1.13208,0,0,1.13208,-32.2081,-30.407)">
        <g transform="matrix(1.2944,0,0,1.2944,-72.6458,-63.4227)">
            <path d="M393.935,240.292C393.935,320.499 328.915,385.52 248.708,385.52C168.502,385.52 103.481,320.499 103.481,240.292C103.481,160.086 168.502,95.066 248.708,95.066C328.915,95.066 393.935,160.086 393.935,240.292Z" style="fill:rgb(36,109,217);fill-rule:nonzero;"/>
        </g>
        <g transform="matrix(1.2944,0,0,1.2944,-72.6458,-63.4227)">
            <path d="M91.283,240.418C91.283,279.779 105.811,315.805 129.776,343.435C130.498,344.267 130.256,345.551 129.272,346.05C129.259,346.057 129.246,346.064 129.231,346.071C128.539,346.421 127.696,346.259 127.187,345.673C102.702,317.443 87.859,280.633 87.859,240.418C87.859,184.516 116.527,135.187 159.93,106.35C160.822,105.758 162.036,106.148 162.428,107.144L162.441,107.177C162.738,107.929 162.465,108.782 161.791,109.229C119.33,137.455 91.283,185.72 91.283,240.418Z" style="fill:rgb(36,109,217);fill-rule:nonzero;"/>
        </g>
        <g transform="matrix(1.2944,0,0,1.2944,-72.6458,-63.4227)">
            <path d="M254.945,397.717C339.273,394.415 406.78,324.466 406.129,239.195C405.482,154.45 337.12,84.993 252.395,83.035C237.21,82.684 222.496,84.508 208.533,88.198C207.801,88.391 206.969,87.982 206.68,87.283L206.674,87.27C206.625,87.152 206.576,87.034 206.526,86.917C206.178,86.101 206.627,85.16 207.484,84.933C221.697,81.16 236.673,79.281 252.13,79.605C339.919,81.448 410.39,154.177 409.549,241.981C408.728,327.828 340.31,397.802 255.074,401.136C254.166,401.172 253.397,400.475 253.32,399.57C253.319,399.558 253.318,399.546 253.317,399.535C253.236,398.576 253.983,397.754 254.945,397.717Z" style="fill:rgb(36,109,217);fill-rule:nonzero;"/>
        </g>
        <g transform="matrix(1.22263,0,0,1.3661,-26.3746,-52.2382)">
            <text x="141.599px" y="192.286px" style="font-family:'Impact', sans-serif;font-stretch:condensed;font-size:50px;fill:white;">C<tspan x="171.785px 201.604px 239.944px 256.848px 286.423px " y="192.286px 192.286px 192.286px 192.286px 192.286px ">OMING</tspan></text>
        </g>
        <g transform="matrix(1.2944,0,0,1.2944,-72.6458,-63.4227)">
            <path d="M313.032,314.571L184.671,314.571C158.737,314.571 137.714,293.547 137.714,267.614C137.714,241.68 158.737,220.657 184.671,220.657L313.032,220.657C338.965,220.657 359.989,241.68 359.989,267.614C359.989,293.547 338.965,314.571 313.032,314.571Z" style="fill-opacity:0.16;fill-rule:nonzero;"/>
        </g>
        <g transform="matrix(1.2944,0,0,1.2944,-72.6458,-63.4227)">
            <path d="M209.12,275.816C208.752,274.836 208.234,273.78 207.566,272.647C206.232,270.232 204.372,267.737 201.836,265.237C201.166,264.405 199.598,263.04 197.283,261.068C195.267,259.398 193.775,257.959 192.807,256.748C190.201,253.571 188.872,250.479 188.896,247.398C188.911,245.444 189.3,243.793 190.137,242.522C191.051,240.875 192.486,240.06 194.365,240.074C196.094,240.088 197.442,240.624 198.335,241.759C199.601,243.272 200.412,245.383 200.691,248.166L210.4,246.437C210.122,243.579 209.391,240.943 208.206,238.679C207.02,236.49 205.381,234.673 203.436,233.455C200.893,231.857 197.818,231.006 194.21,230.978C190.452,230.949 187.288,231.902 184.793,233.761C180.635,236.811 178.57,241.455 178.523,247.543C178.496,250.925 179.224,254.012 180.704,256.955C182.037,259.521 184.42,262.396 187.702,265.728C191.656,269.517 194.64,272.322 196.655,274.291C199.114,277.016 200.37,279.807 200.348,282.588C200.334,284.467 200.021,285.968 199.337,287.015C197.968,289.109 196.231,290.148 193.975,290.205C192.396,290.268 191.048,289.656 189.856,288.294C188.216,286.553 187.186,283.688 186.841,279.777L177.215,280.454C177.413,283.988 178.14,287.151 179.321,289.941C180.577,292.732 182.288,294.925 184.456,296.52C187.071,298.495 190.295,299.497 194.279,299.528C196.383,299.544 198.264,299.333 199.846,298.819C202.86,297.941 205.202,296.381 206.873,294.139C209.379,290.851 210.612,286.877 210.573,282.217C210.588,280.338 210.079,278.154 209.12,275.816Z" style="fill:rgb(250,252,252);fill-rule:nonzero;"/>
        </g>
        <g transform="matrix(1.2944,0,0,1.2944,-72.6458,-63.4227)">
            <path d="M220.048,235.839C216.942,238.972 215.334,242.718 215.3,247.152L215.016,283.679C214.982,288.114 216.531,291.884 219.588,294.989C222.645,298.17 226.391,299.777 230.825,299.812C235.26,299.846 239.03,298.297 242.21,295.24C245.316,292.108 246.924,288.362 246.958,283.927L247.242,247.4C247.277,242.966 245.728,239.196 242.67,236.09C239.613,232.91 235.792,231.302 231.358,231.267C226.999,231.233 223.228,232.782 220.048,235.839ZM236.437,283.695C236.425,285.349 235.888,286.698 234.752,287.816C233.616,288.935 232.259,289.451 230.605,289.438C229.027,289.425 227.678,288.889 226.559,287.753C225.441,286.616 224.85,285.259 224.863,283.605L225.147,247.078C225.16,245.425 225.771,244.077 226.908,242.958C228.044,241.839 229.401,241.324 230.979,241.336C232.632,241.349 233.981,241.885 235.1,243.022C236.218,244.158 236.734,245.515 236.721,247.168L236.437,283.695Z" style="fill:rgb(250,252,252);fill-rule:nonzero;"/>
        </g>
        <g transform="matrix(1.2944,0,0,1.2944,-72.6458,-63.4227)">
            <path d="M256.964,236.126C253.858,239.259 252.25,243.005 252.216,247.439L251.932,283.966C251.898,288.401 253.447,292.171 256.504,295.276C259.561,298.457 263.307,300.065 267.741,300.099C272.176,300.133 275.946,298.584 279.126,295.527C282.232,292.395 283.84,288.649 283.874,284.215L284.158,247.687C284.193,243.253 282.644,239.483 279.586,236.377C276.529,233.197 272.708,231.589 268.274,231.554C263.915,231.52 260.144,233.069 256.964,236.126ZM273.353,283.983C273.341,285.636 272.804,286.985 271.668,288.103C270.532,289.222 269.175,289.738 267.521,289.725C265.943,289.713 264.594,289.176 263.475,288.04C262.357,286.904 261.766,285.546 261.779,283.893L262.063,247.365C262.076,245.712 262.687,244.364 263.824,243.245C264.96,242.126 266.317,241.611 267.895,241.623C269.548,241.636 270.897,242.173 272.016,243.309C273.134,244.445 273.65,245.802 273.637,247.455L273.353,283.983Z" style="fill:rgb(250,252,252);fill-rule:nonzero;"/>
        </g>
        <g transform="matrix(1.2944,0,0,1.2944,-72.6458,-63.4227)">
            <path d="M289.41,232.47L288.889,299.437L298.961,299.515L299.293,256.674L312.865,299.623L323.688,299.707L324.208,232.74L314.137,232.662L313.788,277.607L300.759,232.558L289.41,232.47Z" style="fill:rgb(250,252,252);fill-rule:nonzero;"/>
        </g>
        <g transform="matrix(1.2944,0,0,1.2944,-72.6458,-63.4227)">
            <path d="M191.81,387.086C182.335,383.432 173.164,378.866 164.462,373.363C163.793,372.94 162.924,373.03 162.363,373.587L162.339,373.613C161.57,374.376 161.704,375.666 162.62,376.246C171.516,381.872 180.89,386.54 190.576,390.278C191.399,390.595 192.33,390.221 192.714,389.427C192.719,389.417 192.724,389.407 192.729,389.396C193.161,388.504 192.734,387.444 191.81,387.086Z" style="fill:rgb(36,109,217);fill-rule:nonzero;"/>
        </g>
        <g transform="matrix(1.2944,0,0,1.2944,-72.6458,-63.4227)">
            <path d="M378.553,229.558C378.553,231.502 376.977,233.077 375.034,233.077C373.089,233.077 371.514,231.502 371.514,229.558C371.514,227.615 373.089,226.039 375.034,226.039C376.977,226.039 378.553,227.615 378.553,229.558Z" style="fill:rgb(250,252,252);fill-rule:nonzero;"/>
        </g>
        <g transform="matrix(1.2944,0,0,1.2944,-72.6458,-63.4227)">
            <path d="M251.544,342.788C251.298,342.763 251.058,342.659 250.864,342.477L243.645,335.663C243.177,335.222 243.155,334.485 243.597,334.016C244.04,333.548 244.778,333.527 245.244,333.968L252.464,340.781C252.932,341.223 252.954,341.96 252.512,342.428C252.253,342.703 251.892,342.825 251.544,342.788Z" style="fill:rgb(250,252,252);fill-rule:nonzero;"/>
        </g>
        <g transform="matrix(1.2944,0,0,1.2944,-72.6458,-63.4227)">
            <path d="M244.528,342.992C244.282,342.966 244.042,342.863 243.849,342.68C243.381,342.239 243.359,341.501 243.8,341.033L250.612,333.813C251.055,333.344 251.794,333.324 252.26,333.764C252.728,334.206 252.751,334.944 252.308,335.411L245.496,342.632C245.237,342.907 244.876,343.028 244.528,342.992Z" style="fill:rgb(250,252,252);fill-rule:nonzero;"/>
        </g>
        <g transform="matrix(1.2944,0,0,1.2944,-72.6458,-63.4227)">
            <path d="M317.273,154.464C317.027,154.439 316.787,154.335 316.593,154.153L309.375,147.34C308.906,146.898 308.884,146.16 309.326,145.692C309.769,145.224 310.507,145.203 310.973,145.643L318.193,152.457C318.661,152.899 318.683,153.636 318.241,154.104C317.982,154.379 317.621,154.5 317.273,154.464Z" style="fill:rgb(250,252,252);fill-rule:nonzero;"/>
        </g>
        <g transform="matrix(1.2944,0,0,1.2944,-72.6458,-63.4227)">
            <path d="M310.257,154.668C310.011,154.642 309.771,154.539 309.578,154.356C309.11,153.914 309.088,153.177 309.53,152.708L316.341,145.488C316.785,145.02 317.523,144.999 317.989,145.44C318.458,145.882 318.479,146.619 318.038,147.088L311.225,154.308C310.966,154.583 310.605,154.703 310.257,154.668Z" style="fill:rgb(250,252,252);fill-rule:nonzero;"/>
        </g>
        <g transform="matrix(1.2944,0,0,1.2944,-72.6458,-63.4227)">
            <path d="M127.667,236.596C127.667,238.54 126.091,240.116 124.147,240.116C122.203,240.116 120.628,238.54 120.628,236.596C120.628,234.653 122.203,233.077 124.147,233.077C126.091,233.077 127.667,234.653 127.667,236.596Z" style="fill:rgb(250,252,252);fill-rule:nonzero;"/>
        </g>
        <g transform="matrix(1.2944,0,0,1.2944,-72.6458,-63.4227)">
            <path d="M214.472,139.691C214.472,141.635 212.897,143.21 210.953,143.21C209.009,143.21 207.434,141.635 207.434,139.691C207.434,137.747 209.009,136.172 210.953,136.172C212.897,136.172 214.472,137.747 214.472,139.691Z" style="fill:rgb(250,252,252);fill-rule:nonzero;"/>
        </g>
    </g>
</svg>
