<svg xmlns="http://www.w3.org/2000/svg" width="53.064" height="32" viewBox="0 0 53.064 32">
  <g id="Group_68565" data-name="Group 68565" transform="translate(17593.072 18167.725)">
    <path id="group_FILL0_wght400_GRAD0_opsz48_2_" data-name="group_FILL0_wght400_GRAD0_opsz48 (2)" d="M81.814,307a1.495,1.495,0,0,0,1.539-1.546v-3.3a6.021,6.021,0,0,0-.923-3.272,5.627,5.627,0,0,0-2.565-2.19,40.555,40.555,0,0,0-6.747-2.37,26.361,26.361,0,0,0-6.182-.721,26.039,26.039,0,0,0-6.157.721,40.9,40.9,0,0,0-6.721,2.37,5.781,5.781,0,0,0-2.591,2.19,5.9,5.9,0,0,0-.949,3.272v3.3A1.495,1.495,0,0,0,52.057,307Zm-33.245,0a1.28,1.28,0,0,1-.821-.541,1.881,1.881,0,0,1-.308-1.108v-3.195a8.366,8.366,0,0,1,1.642-5.333,12.025,12.025,0,0,1,4.31-3.375,50.666,50.666,0,0,0-6.67,1.211,23.443,23.443,0,0,0-5.079,1.829,7.954,7.954,0,0,0-2.668,2.422A5.667,5.667,0,0,0,38,302.157v3.3A1.495,1.495,0,0,0,39.539,307Zm18.367-16.541a7.4,7.4,0,1,0-5.541-2.164A7.483,7.483,0,0,0,66.936,290.459Zm-18.47-7.73a7.4,7.4,0,0,0,7.7,7.73,11.427,11.427,0,0,0,1.257-.077,5.405,5.405,0,0,0,1.257-.283,8.464,8.464,0,0,1-1.873-3.169,12.959,12.959,0,0,1-.641-4.2,12.043,12.043,0,0,1,.641-4.1,10.967,10.967,0,0,1,1.873-3.272,10.79,10.79,0,0,0-1.257-.258,8.61,8.61,0,0,0-1.257-.1,7.4,7.4,0,0,0-7.7,7.73Zm31.809,21.179H53.6v-1.752a2.956,2.956,0,0,1,.487-1.6,2.686,2.686,0,0,1,1.206-1.082,34.54,34.54,0,0,1,6.208-2.216,24.705,24.705,0,0,1,5.438-.567,25.055,25.055,0,0,1,5.464.567,34.234,34.234,0,0,1,6.233,2.216,2.549,2.549,0,0,1,1.18,1.082,3.075,3.075,0,0,1,.462,1.6ZM66.936,287.367a4.485,4.485,0,1,1,3.309-1.314A4.474,4.474,0,0,1,66.936,287.367ZM66.936,282.73ZM66.936,296.694Z" transform="translate(-17631.072 -18442.725)" fill="#2a6dd9"/>
    <path id="search_off_FILL0_wght400_GRAD0_opsz48" d="M89.379,614.758a9.438,9.438,0,1,1,6.614-2.764A9.025,9.025,0,0,1,89.379,614.758Z" transform="translate(-17638.766 -18750.627)" fill="#fff"/>
    <path id="search_off_FILL0_wght400_GRAD0_opsz48-2" data-name="search_off_FILL0_wght400_GRAD0_opsz48" d="M89.379,614.758a9.438,9.438,0,1,1,6.614-2.764A9.025,9.025,0,0,1,89.379,614.758Zm-4-5.331a.834.834,0,0,0,1.185,0l2.814-2.814,2.814,2.814a.67.67,0,0,0,.543.222.86.86,0,0,0,.543-.271.776.776,0,0,0,0-1.135l-2.814-2.814,2.962-2.962a.7.7,0,0,0,.222-.568.881.881,0,0,0-.271-.568.721.721,0,0,0-1.086,0l-2.912,2.912-2.912-2.912a.721.721,0,0,0-1.086,0,.776.776,0,0,0,0,1.135l2.863,2.912-2.863,2.863a.834.834,0,0,0,0,1.185Z" transform="translate(-17638.766 -18750.627)" fill="#2a6dd9"/>
  </g>
</svg>
