<svg xmlns="http://www.w3.org/2000/svg" width="24" height="24" viewBox="0 0 24 24">
  <g id="Group_69789" data-name="Group 69789" transform="translate(275.571 -278) rotate(90)">
    <rect id="Rectangle_12251" data-name="Rectangle 12251" width="24" height="24" transform="translate(278 251.571)" fill="#fff" opacity="0"/>
    <path id="badge_FILL0_wght400_GRAD0_opsz24" d="M82-860a1.926,1.926,0,0,1-1.413-.587A1.926,1.926,0,0,1,80-862v-11a1.926,1.926,0,0,1,.587-1.412A1.926,1.926,0,0,1,82-875h5v-3a1.926,1.926,0,0,1,.588-1.412A1.926,1.926,0,0,1,89-880h2a1.926,1.926,0,0,1,1.412.588A1.926,1.926,0,0,1,93-878v3h5a1.926,1.926,0,0,1,1.412.588A1.926,1.926,0,0,1,100-873v11a1.926,1.926,0,0,1-.588,1.413A1.926,1.926,0,0,1,98-860Zm0-2H98v-11H93a1.926,1.926,0,0,1-.587,1.413A1.926,1.926,0,0,1,91-871H89a1.926,1.926,0,0,1-1.412-.587A1.926,1.926,0,0,1,87-873H82Zm5-2h6v-.45a1.409,1.409,0,0,0-.237-.787,1.57,1.57,0,0,0-.662-.563,5.158,5.158,0,0,0-1.013-.337A5.062,5.062,0,0,0,90-866.25a5.062,5.062,0,0,0-1.087.113,5.158,5.158,0,0,0-1.013.337,1.57,1.57,0,0,0-.662.563,1.409,1.409,0,0,0-.238.787Zm3-3a1.447,1.447,0,0,0,1.063-.437A1.447,1.447,0,0,0,91.5-868.5a1.447,1.447,0,0,0-.437-1.063A1.447,1.447,0,0,0,90-870a1.447,1.447,0,0,0-1.062.438A1.447,1.447,0,0,0,88.5-868.5a1.447,1.447,0,0,0,.437,1.063A1.447,1.447,0,0,0,90-867Zm-1-6h2v-5H89Zm4.25,5.5-3,0" transform="translate(1160 353.571) rotate(-90)" fill="#2a6dd9"/>
  </g>
</svg>
