<svg xmlns="http://www.w3.org/2000/svg" width="20.009" height="20" viewBox="0 0 20.009 20">
  <path id="envelope-open_1_" data-name="envelope-open (1)" d="M18.724,6.755,12.952,1.222A4.19,4.19,0,0,0,7.07,1.21L1.284,6.755A4.192,4.192,0,0,0,0,9.763v6.079a4.174,4.174,0,0,0,4.169,4.169H15.84a4.174,4.174,0,0,0,4.169-4.169V9.763A4.189,4.189,0,0,0,18.724,6.755ZM8.236,2.4a2.512,2.512,0,0,1,3.55.013L17.411,7.8l-5.638,5.639a2.563,2.563,0,0,1-3.537,0L2.6,7.8ZM18.341,15.842a2.5,2.5,0,0,1-2.5,2.5H4.169a2.5,2.5,0,0,1-2.5-2.5V9.763a2.513,2.513,0,0,1,.049-.482l5.341,5.341a4.189,4.189,0,0,0,5.894,0l5.341-5.341a2.513,2.513,0,0,1,.049.482Z" transform="translate(0 -0.011)" fill="#98b4e0"/>
</svg>
