<svg width="30" height="30" viewBox="0 0 30 30" fill="none" xmlns="http://www.w3.org/2000/svg">
<path d="M25 0H5C2.23858 0 0 2.23858 0 5V25C0 27.7614 2.23858 30 5 30H25C27.7614 30 30 27.7614 30 25V5C30 2.23858 27.7614 0 25 0Z" fill="white"/>
<path d="M22.989 14.447C22.397 13.149 20.07 8.91699 15 8.91699C9.93001 8.91699 7.60401 13.149 7.01001 14.447C6.93028 14.621 6.88901 14.8101 6.88901 15.0015C6.88901 15.1929 6.93028 15.382 7.01001 15.556C7.60301 16.856 9.93101 21.084 15 21.084C20.069 21.084 22.4 16.852 22.99 15.554C23.0694 15.3802 23.1103 15.1914 23.1102 15.0004C23.11 14.8094 23.0687 14.6206 22.989 14.447ZM14.999 19.732C10.736 19.732 8.74701 16.105 8.24001 15.008C8.74701 13.896 10.74 10.269 14.999 10.269C19.258 10.269 21.242 13.881 21.758 15.001C21.243 16.117 19.253 19.732 15 19.732H14.999Z" fill="#2A6DD9"/>
<path d="M15 11.621C14.3315 11.621 13.678 11.8192 13.1222 12.1906C12.5663 12.562 12.1331 13.0899 11.8773 13.7075C11.6215 14.3251 11.5545 15.0047 11.6849 15.6604C11.8154 16.316 12.1373 16.9183 12.61 17.391C13.0827 17.8637 13.6849 18.1856 14.3406 18.316C14.9962 18.4464 15.6759 18.3795 16.2935 18.1237C16.9111 17.8679 17.439 17.4346 17.8104 16.8788C18.1818 16.323 18.38 15.6695 18.38 15.001C18.38 14.1045 18.0239 13.2448 17.39 12.611C16.7561 11.9771 15.8964 11.621 15 11.621ZM15 17.029C14.5989 17.029 14.2068 16.91 13.8733 16.6872C13.5398 16.4644 13.2799 16.1476 13.1264 15.7771C12.9729 15.4065 12.9327 14.9987 13.011 14.6053C13.0892 14.2119 13.2824 13.8506 13.566 13.567C13.8496 13.2833 14.211 13.0902 14.6044 13.0119C14.9977 12.9337 15.4055 12.9738 15.7761 13.1273C16.1466 13.2808 16.4634 13.5408 16.6862 13.8743C16.9091 14.2078 17.028 14.5999 17.028 15.001C17.028 15.5388 16.8143 16.0547 16.434 16.435C16.0537 16.8153 15.5379 17.029 15 17.029Z" fill="#2A6DD9"/>
</svg>
