<svg width="40" height="40" viewBox="0 0 40 40" fill="none" xmlns="http://www.w3.org/2000/svg">
<path d="M35 0H5C2.2386 0 0 2.23858 0 5V35C0 37.7614 2.2386 40 5 40H35C37.7614 40 40 37.7614 40 35V5C40 2.23858 37.7614 0 35 0Z" fill="#E7F0FC"/>
<path d="M19.179 28.0001C19.047 28.0025 18.9159 27.9783 18.7935 27.9289C18.671 27.8795 18.5598 27.806 18.4665 27.7126C18.3731 27.6193 18.2995 27.5081 18.2502 27.3856C18.2008 27.2632 18.1766 27.1321 18.179 27.0001V21.0001L12.204 13.3751C12.0924 13.256 12.0224 13.1039 12.0044 12.9417C11.9863 12.7795 12.0213 12.6158 12.104 12.4751C12.172 12.3284 12.2819 12.205 12.4198 12.1205C12.5576 12.036 12.7174 11.9941 12.879 12.0001H27.479C27.6406 11.9941 27.8004 12.036 27.9382 12.1205C28.0761 12.205 28.186 12.3284 28.254 12.4751C28.3367 12.6158 28.3717 12.7795 28.3537 12.9417C28.3356 13.1039 28.2656 13.256 28.154 13.3751L22.179 21.0001V27.0001C22.1814 27.1321 22.1573 27.2632 22.1079 27.3856C22.0585 27.5081 21.9849 27.6193 21.8916 27.7126C21.7982 27.806 21.687 27.8795 21.5646 27.9289C21.4421 27.9783 21.311 28.0025 21.179 28.0001H19.179ZM20.179 21.1001L26.179 13.5001H14.179L20.179 21.1001Z" fill="#2A6DD9"/>
</svg>
