<svg width="686" height="686" viewBox="0 0 686 686" fill="none" xmlns="http://www.w3.org/2000/svg">
<path d="M611.424 245.594H480.129C471.191 257.965 460.882 269.656 448.506 279.278H611.421C621.731 279.278 629.983 287.525 629.983 297.839V617.483C629.983 627.793 621.735 636.045 611.421 636.045H75.2441C64.935 636.045 56.6829 627.797 56.6829 617.483V297.152C56.6829 286.843 64.9303 278.591 75.2441 278.591H238.16C226.474 268.967 215.475 257.967 206.536 244.906L75.2417 244.911C46.3706 244.911 23 268.282 23 297.153V616.797C23 645.668 46.3706 669.039 75.2417 669.039H611.419C640.29 669.039 663.661 645.668 663.661 616.797V297.153C663.661 268.968 640.29 245.597 611.415 245.597L611.424 245.594Z" fill="#2A6DD9"/>
<path d="M328.9 530.868C324.776 499.936 302.777 475.189 274.597 465.565C260.159 474.503 242.289 480.003 223.728 480.003C205.166 480.003 187.981 475.189 172.858 465.565C144.673 474.503 122.679 499.936 118.556 530.868L113.056 569.361C111.68 579.67 119.241 588.609 129.555 588.609H316.529C326.839 588.609 334.401 579.671 333.028 569.361L328.9 530.868Z" fill="#2A6DD9"/>
<path d="M223.726 455.94C259.473 455.94 289.029 427.069 289.029 390.638C289.029 354.892 260.158 325.336 223.726 325.336C187.98 325.336 158.424 354.207 158.424 390.638C158.424 426.384 187.985 455.94 223.726 455.94Z" fill="#2A6DD9"/>
<path d="M557.119 381.7H401.077C392.14 381.7 384.578 374.139 384.578 365.201C384.578 356.264 392.14 348.702 401.077 348.702H556.431C565.369 348.702 572.93 356.264 572.93 365.201C572.93 374.139 566.059 381.7 557.121 381.7H557.119Z" fill="#2A6DD9"/>
<path d="M557.119 473.813H401.077C392.14 473.813 384.578 466.251 384.578 457.314C384.578 448.377 392.14 440.815 401.077 440.815H556.431C565.369 440.815 572.93 448.377 572.93 457.314C573.621 466.252 566.059 473.813 557.121 473.813H557.119Z" fill="#2A6DD9"/>
<path d="M557.119 565.925H401.077C392.14 565.925 384.578 558.364 384.578 549.426C384.578 540.489 392.14 532.927 401.077 532.927H556.431C565.369 532.927 572.93 540.489 572.93 549.426C573.621 559.05 566.059 565.925 557.121 565.925H557.119Z" fill="#2A6DD9"/>
<path d="M343.335 16C269.78 16 209.978 75.8032 209.978 149.357C209.978 222.911 269.782 282.714 343.335 282.714C416.889 282.714 476.692 222.911 476.692 149.357C476.692 75.8032 416.889 16 343.335 16ZM407.262 132.858L338.521 201.599C334.397 205.722 329.583 207.784 324.083 207.784C319.269 207.784 313.774 205.722 309.645 201.599L275.275 167.228C267.713 159.667 267.713 146.605 275.275 139.043C282.836 131.482 295.898 131.482 303.46 139.043L323.392 158.976L377.695 104.673C385.256 97.1113 398.318 97.1113 405.879 104.673C415.513 112.235 415.513 124.61 407.26 132.858H407.262Z" fill="#2A6DD9"/>
</svg>
