<?xml version="1.0" encoding="UTF-8" standalone="no"?>
<!DOCTYPE svg PUBLIC "-//W3C//DTD SVG 1.1//EN" "http://www.w3.org/Graphics/SVG/1.1/DTD/svg11.dtd">
<svg width="100%" height="100%" viewBox="0 0 100 97" version="1.1" xmlns="http://www.w3.org/2000/svg" xmlns:xlink="http://www.w3.org/1999/xlink" xml:space="preserve" xmlns:serif="http://www.serif.com/" style="fill-rule:evenodd;clip-rule:evenodd;stroke-linejoin:round;stroke-miterlimit:2;">
    <rect x="0" y="0" width="100" height="100" style="fill:none;"/>
    <g>
        <path d="M47.4,36.4C47.7,36.4 47.9,36.3 48.1,36.1L51.1,32.6C51.4,32.2 51.4,31.6 51,31.3C50.6,31 50,31 49.7,31.4L46.7,34.9C46.4,35.3 46.4,35.9 46.8,36.2C47,36.4 47.2,36.4 47.4,36.4" style="fill-rule:nonzero;"/>
        <path d="M59.7,36.1C59.9,36.3 60.2,36.4 60.4,36.4C60.6,36.4 60.8,36.3 61,36.2C61.4,35.9 61.4,35.3 61.1,34.9L58.1,31.4C57.8,31 57.2,31 56.8,31.3C56.4,31.6 56.4,32.2 56.7,32.6L59.7,36.1" style="fill-rule:nonzero;"/>
        <path d="M53.9,39.9C54.4,39.9 54.8,39.5 54.8,39L54.8,33.3C54.8,32.8 54.4,32.4 53.9,32.4C53.4,32.4 53,32.8 53,33.3L53,39C53,39.5 53.4,39.9 53.9,39.9" style="fill-rule:nonzero;"/>
        <path d="M78.7,67.5C78.1,67.9 63.2,78.1 59.7,79.4C59.7,79.4 56.5,80.7 54.2,80.7L32.9,80.7L32.9,81L29.4,67.8L30.8,66.4C32,65.1 33.3,64.2 34.4,63.5C35,63.1 35.6,62.9 36.2,62.6C41.8,60.3 46.1,63.3 46.5,63.6C48.2,65.1 54,64.9 55.9,64.8C56.8,65 57.8,65.3 58.2,66.1C58.6,67 58,68.2 58,68.2C58,68.3 57.9,68.3 57.9,68.4C56.7,70 51,70 47.2,69.6L47.2,70L47,71.5C47.7,71.6 49.5,71.8 51.5,71.8C54,71.8 57,71.5 58.7,70.3C58.9,70.2 59.1,70 59.3,69.8C61.1,70.2 62.4,69.5 63,69C63.2,68.8 64.4,67.8 66.2,66.6C67.5,65.7 69.1,64.6 70.7,63.7C72,63 73.3,62.4 74.5,62C74.8,61.9 75.1,61.8 75.4,61.7C76.4,61.5 79.5,61.2 80.4,62.7C80.3,62.8 81.7,65.2 78.7,67.5ZM25.4,87.6L19.6,65.5L26.4,63.7L27.3,67.3L27.4,67.4L32.3,85.9L25.4,87.6ZM33.3,53.6C33.3,48 35.6,41.8 39.4,37C43.5,31.9 48.6,29.1 53.9,29.1C59.2,29.1 64.3,31.9 68.4,37C72.2,41.8 74.5,48 74.5,53.6C74.5,56.3 74,58.6 73,60.5C67.7,62.5 61.9,67.4 61.6,67.6C61.6,67.6 61.1,68 60.1,68C60.3,67.3 60.4,66.3 59.9,65.4C59.3,64.2 58.1,63.4 56.1,63L56,63C52.6,63.2 48.5,62.9 47.8,62.2L47.7,62.1C47.6,62 45.4,60.4 42.1,59.9C40.3,59.6 37.8,59.7 35.1,60.9C34,59 33.3,56.6 33.3,53.6ZM45,27.1L45,24.2L62.9,24.2L62.9,27.1L45,27.1ZM46.4,17.3C46.4,16.9 46.6,16.6 46.7,16.6L46.8,16.6C47.1,16.6 47.5,16.8 47.9,17C48.7,17.4 49.7,17.9 50.8,17.5C51.5,17.2 51.9,16.6 52.2,16.1C52.9,15 53.6,14.1 54.5,13.2C54.8,14.2 55.3,15.2 55.8,16C56.1,16.5 56.7,17.3 57.6,17.4C58.2,17.5 58.7,17.3 59.1,17.1L62.5,15.8C62.6,15.8 62.7,15.7 62.8,15.7C62.8,15.7 62.9,15.8 62.9,15.9C63.4,16.6 63.9,17.3 64.3,18.2C64.3,18.2 64.2,18.2 64.2,18.3C62.6,19.4 61.2,20.9 60.1,22.4L48.4,22.4C48.2,21.9 47.9,21.5 47.7,21C46.9,19.6 46.3,18.4 46.4,17.3ZM81.9,61.7C80.5,59.2 76.8,59.5 75.4,59.7C76.1,57.9 76.4,55.8 76.4,53.5C76.4,43.9 70.4,33.1 61.7,28.9L63.6,28.9C64.2,28.9 64.8,28.4 64.8,27.7L64.8,23.3C64.8,22.7 64.3,22.1 63.6,22.1L62.5,22.1C63.3,21.1 64.3,20.3 65.3,19.5C65.6,19.3 66,19 66.2,18.3C66.3,17.8 66.1,17.3 66,17.1C65.6,16.2 65,15.3 64.4,14.4C64.2,14.2 63.9,13.8 63.4,13.6C62.7,13.4 62.1,13.6 61.7,13.7L58.3,15C58.2,15.1 57.9,15.2 57.8,15.1C57.8,15.1 57.6,15.1 57.3,14.6C56.6,13.5 56.1,12.2 55.9,10.9C55.8,10.6 55.6,10.3 55.3,10.2C55,10.1 54.6,10.1 54.4,10.4C52.9,11.7 51.6,13.1 50.5,14.8C50.3,15.1 50.1,15.4 50,15.5C49.8,15.6 49.2,15.3 48.8,15.1C48,14.7 47,14.1 45.9,14.6C45.1,15 44.6,15.8 44.5,16.9C44.4,18.6 45.3,20.1 46,21.5C46.1,21.7 46.2,21.8 46.3,22L44.3,22C43.7,22 43.1,22.5 43.1,23.2L43.1,27.6C43.1,28.2 43.6,28.8 44.3,28.8L46.2,28.8C37.5,33 31.5,43.8 31.5,53.4C31.5,56.6 32.2,59.4 33.5,61.7C32.2,62.5 30.9,63.5 29.6,64.9L29,65.5L28,62.4C27.8,61.8 27.2,61.4 26.6,61.6L18.3,63.8C18,63.9 17.7,64.1 17.6,64.3C17.4,64.6 17.4,64.9 17.5,65.2L23.7,88.8C23.8,89.1 24,89.4 24.2,89.5C24.4,89.6 24.6,89.7 24.8,89.7L25.1,89.7L33.4,87.5C34,87.3 34.4,86.7 34.2,86.1L33.3,82.8L54.1,82.8C56.7,82.8 60,81.5 60.3,81.4C64.2,80 79.1,69.7 79.7,69.2C83.3,66.4 82.7,63.1 81.9,61.7" style="fill-rule:nonzero;"/>
    </g>
</svg>
