<svg xmlns="http://www.w3.org/2000/svg" xmlns:xlink="http://www.w3.org/1999/xlink" width="561.441" height="407.721" viewBox="0 0 561.441 407.721">
  <defs>
    <radialGradient id="radial-gradient" cx="0.5" cy="0.5" r="0.5" gradientUnits="objectBoundingBox">
      <stop offset="0" stop-color="#032457"/>
      <stop offset="1" stop-color="#021255" stop-opacity="0"/>
    </radialGradient>
    <linearGradient id="linear-gradient" x1="0.5" x2="0.5" y2="1" gradientUnits="objectBoundingBox">
      <stop offset="0" stop-color="#3875d5" stop-opacity="0"/>
      <stop offset="1" stop-color="#5595f8"/>
    </linearGradient>
  </defs>
  <g id="Group_70356" data-name="Group 70356" transform="translate(-65.279 -587)">
    <ellipse id="Ellipse_815" data-name="Ellipse 815" cx="265" cy="6" rx="265" ry="6" transform="translate(81 967)" fill="url(#radial-gradient)"/>
    <g id="Group_70355" data-name="Group 70355">
      <g id="Group_70354" data-name="Group 70354" transform="translate(10 23)">
        <g id="Rectangle_12141" data-name="Rectangle 12141" transform="translate(221 564)" fill="#fff" stroke="#021255" stroke-width="7">
          <rect width="199" height="386" rx="34" stroke="none"/>
          <rect x="3.5" y="3.5" width="192" height="379" rx="30.5" fill="none"/>
        </g>
        <path id="Rectangle_12171" data-name="Rectangle 12171" d="M0,0H185a0,0,0,0,1,0,0V302a27,27,0,0,1-27,27H27A27,27,0,0,1,0,302V0A0,0,0,0,1,0,0Z" transform="translate(228 614)" fill="url(#linear-gradient)"/>
        <g id="Rectangle_12142" data-name="Rectangle 12142" transform="translate(289 697)" fill="#fff" stroke="#122780" stroke-width="2">
          <rect width="280" height="120" rx="15" stroke="none"/>
          <rect x="1" y="1" width="278" height="118" rx="14" fill="none"/>
        </g>
        <g id="Rectangle_12143" data-name="Rectangle 12143" transform="translate(319 740)" fill="#fff" stroke="rgba(2,18,85,0.25)" stroke-width="1">
          <rect width="30" height="34" rx="7" stroke="none"/>
          <rect x="0.5" y="0.5" width="29" height="33" rx="6.5" fill="none"/>
        </g>
        <g id="Rectangle_12144" data-name="Rectangle 12144" transform="translate(357 740)" fill="#fff" stroke="rgba(2,18,85,0.25)" stroke-width="1">
          <rect width="30" height="34" rx="7" stroke="none"/>
          <rect x="0.5" y="0.5" width="29" height="33" rx="6.5" fill="none"/>
        </g>
        <g id="Rectangle_12145" data-name="Rectangle 12145" transform="translate(395 740)" fill="#fff" stroke="rgba(2,18,85,0.25)" stroke-width="1">
          <rect width="30" height="34" rx="7" stroke="none"/>
          <rect x="0.5" y="0.5" width="29" height="33" rx="6.5" fill="none"/>
        </g>
        <g id="Rectangle_12146" data-name="Rectangle 12146" transform="translate(433 740)" fill="#fff" stroke="rgba(2,18,85,0.25)" stroke-width="1">
          <rect width="30" height="34" rx="7" stroke="none"/>
          <rect x="0.5" y="0.5" width="29" height="33" rx="6.5" fill="none"/>
        </g>
        <g id="Rectangle_12147" data-name="Rectangle 12147" transform="translate(471 740)" fill="#fff" stroke="rgba(2,18,85,0.25)" stroke-width="1">
          <rect width="30" height="34" rx="7" stroke="none"/>
          <rect x="0.5" y="0.5" width="29" height="33" rx="6.5" fill="none"/>
        </g>
        <g id="Rectangle_12148" data-name="Rectangle 12148" transform="translate(509 740)" fill="#fff" stroke="rgba(2,18,85,0.25)" stroke-width="1">
          <rect width="30" height="34" rx="7" stroke="none"/>
          <rect x="0.5" y="0.5" width="29" height="33" rx="6.5" fill="none"/>
        </g>
        <path id="Path_50382" data-name="Path 50382" d="M8.114-9.919V-14.28H5.324v4.361L1.382-11.454.44-8.768l4.047,1.36L1.905-3.989,4.242-2.28,6.684-5.873,9.266-2.28l2.3-1.709L8.987-7.408,13.1-8.768l-.942-2.686Z" transform="translate(327.229 765.28)" fill="#021255" stroke="#fff" stroke-width="1"/>
        <path id="Path_50383" data-name="Path 50383" d="M8.114-9.919V-14.28H5.324v4.361L1.382-11.454.44-8.768l4.047,1.36L1.905-3.989,4.242-2.28,6.684-5.873,9.266-2.28l2.3-1.709L8.987-7.408,13.1-8.768l-.942-2.686Z" transform="translate(365.229 765.28)" fill="#021255" stroke="#fff" stroke-width="1"/>
        <g id="Group_70353" data-name="Group 70353" transform="translate(55 677)">
          <path id="Path_50390" data-name="Path 50390" d="M457.645,304.246a10.491,10.491,0,0,1-10.492,12.2l-25.7,74.781-16.4-11.27,31.656-74.9a10.548,10.548,0,0,1,20.934-.809Z" transform="translate(-203.926 -208.012)" fill="#e6bcc2"/>
          <path id="Path_50391" data-name="Path 50391" d="M436.5,351.524c11.413,12.985,39.555,35.868,62.738,51.625,5.011,3.406,9.793,6.473,14.123,9.041,2.925,1.734,5.644,3.234,8.093,4.458a13.335,13.335,0,0,0,18.3-6.907L555.8,370.906l-5.554-3.682-13.695-9.084-3.11-2.058L520.6,386.667,507.054,375.8l-8.407-6.75-38.326-30.757-3.306-.981-7.712,7.526-5.454,5.325-5.13.891C437.953,351.185,437.21,351.343,436.5,351.524Z" transform="translate(-316.914 -229.988)" fill="#f7cd42"/>
          <path id="Path_50393" data-name="Path 50393" d="M827.539,480.212q-.857,2.358-1.562,4.768.486,1.429,1,2.848.193-.75.4-1.5a77.164,77.164,0,0,1,2.786-8.193q1.329-3.294,2.944-6.45a81.145,81.145,0,0,1,24.75-28.818,21.6,21.6,0,0,0,11.16-6.564,16.6,16.6,0,0,0,2.653-3.935c-.438-.062-.876-.148-1.305-.238-.133-.029-.271-.062-.4-.091l-.052-.01a2.5,2.5,0,0,1-.881-4.468c.243-.176.491-.348.734-.519.372-.271.748-.529,1.124-.8a1.158,1.158,0,0,0,.114-.081c.429-.3.857-.6,1.281-.91a7.238,7.238,0,0,0-1.662-2.839c-2.663-2.748-7.417-2.686-10.522-.448s-4.673,6.159-4.873,9.979a28.932,28.932,0,0,0,1.458,9.669c-.233.172-.476.333-.71.51a81.606,81.606,0,0,0-11.842,10.722,34.005,34.005,0,0,0,2.286-15.743c-.614-5.03-3.058-9.808-5.059-14.566-2.4-5.716-10.57-5.792-12.875-.038-.024.057-.048.11-.067.167q.579.579,1.115,1.2a3.418,3.418,0,0,1-3,5.621l-.071-.01a34.35,34.35,0,0,0-.505,5.14,35.014,35.014,0,0,0,10.9,25.817c.229.214.453.424.686.629a81.277,81.277,0,0,0-5.93,9.846A82.117,82.117,0,0,0,827.539,480.212Z" transform="translate(-818.903 -272.359)" fill="#235dbb"/>
          <path id="Path_50394" data-name="Path 50394" d="M480.227,393.155l1.438,98.8,116.206-3.334-18.558-40.965c.133-1.315-8.145-10.541-8.1-11.908.143-4.006-2.848-7.717-3.334-11.908-.991-8.645,4.682-41.293,2.067-48.038a45.849,45.849,0,0,0-4.258-8.612c-1.486-2.248-3.01-3.763-4.468-4.311l-4.3-10.012-3.811-5.716-29.9-8.855-3.306-.981-7.712,7.526-5.454,5.325-5.13.891c-.767.133-1.51.291-2.224.472a22.6,22.6,0,0,0-9.365,4.639C481.07,363.77,480.027,378.079,480.227,393.155Z" transform="translate(-379.809 -229.988)" fill="#f7cd42"/>
          <path id="Path_50395" data-name="Path 50395" d="M339.15,660.4q4.916,6.166,10.417,11.823l12.566.01,67.577.076,12.165.014,8.088.01,12.032.01,9.255.01,17.1.019,10.084.014,21.235.019,10.136.014,28.089.029,17.643.019,4.735,0q1.579-1.615,3.11-3.277,3.815-4.137,7.34-8.531l-9.8-.01-6.678,0-15.462-.019L528.94,660.6l-10.084-.01-4.077,0h-.014l-3.2,0-1.434,0-3.673,0H504.9l-10.889-.01-23.488-.029-10.336-.01-9.9-.01-9.279-.01-13.313-.014-71.107-.071Z" transform="translate(-305.469 -399.181)" fill="#164ea8"/>
          <path id="Path_9" data-name="Path 9" d="M587.578,264.744l.026,0a5.2,5.2,0,0,0,5.663-4.7l2.709-28.913a38.809,38.809,0,0,0-1.635-15.365A39.434,39.434,0,0,0,575.655,193.1a38.83,38.83,0,0,0-14.886-4.553c-21.349-2.034-29.151,2.412-42.339,34.973s-2.713,28.957-2.713,28.957a5.21,5.21,0,0,0,.22,2.067,5.3,5.3,0,0,0,2.518,3.045,5.228,5.228,0,0,0,1.99.608c25.239,6.415,50.706,13.169,67.137,6.547Z" transform="translate(-393.123 -151.867)" fill="#2f2e41"/>
          <path id="Ellipse_1" data-name="Ellipse 1" d="M523.664,232.8a28.625,28.625,0,0,0,29.11,44.142,28.292,28.292,0,0,0,18.216-11.987A28.625,28.625,0,0,0,541.9,220.825,28.292,28.292,0,0,0,523.664,232.8Z" transform="translate(-376.186 -168.723)" fill="#f5d1d6"/>
          <path id="Path_10" data-name="Path 10" d="M560.214,247.35A30.7,30.7,0,0,0,558.92,235.2c-.288-9.6-3.072-18.289-14.777-17.924a30.714,30.714,0,0,0-11.695-3.589l-5.784-.571-.195-.019a30.648,30.648,0,0,0-33.356,27.676l-.054.579,12.237,1.2,5.267-11.271-.26,11.763,6.32.62,2.656-5.686-.13,5.931c9.384,8.265,23.615,8.7,41,4.027Z" transform="translate(-348.411 -164.87)" fill="#2f2e41"/>
          <path id="Path_13" data-name="Path 13" d="M608.385,285.178a5.121,5.121,0,0,1-.477,2.779,5.238,5.238,0,0,1-.8,1.22,5.3,5.3,0,0,1-.932.831,5.2,5.2,0,0,1-3.475.907q-.115-.012-.229-.028t-.228-.038q-.115-.021-.229-.047t-.228-.058l-4.271-1.2L592.726,276.2l-1.1,11.711L572.207,282.5l4.656-49.7,33.1,3.262-.908.874a22.878,22.878,0,0,0-6.207,10.725,37.291,37.291,0,0,0-.945,12.652,67.243,67.243,0,0,0,2.371,12.665,99.106,99.106,0,0,0,3.742,10.781,5.228,5.228,0,0,1,.367,1.413Z" transform="translate(-435.727 -175.262)" fill="#2f2e41"/>
          <path id="Path_50396" data-name="Path 50396" d="M449.142,646.151a3.839,3.839,0,0,0,1.645-.372l91.7,2.34a3.849,3.849,0,0,0-.548-7.166l-59.995-17.889a3.85,3.85,0,0,0-1.913-.073l-92.8,11.311a3.848,3.848,0,0,0-.441,7.4l61.094,4.238A3.852,3.852,0,0,0,449.142,646.151Z" transform="translate(-280.898 -379.544)" fill="#3f3d56"/>
          <path id="Path_50397" data-name="Path 50397" d="M454.58,649.631a2.421,2.421,0,0,0,1.183-.308l74.476,3.479a2.414,2.414,0,0,0-.611-4.452l-26.962-6.544a2.42,2.42,0,0,0-1.275.037l-69.236-.083a2.414,2.414,0,0,0-.016,4.612l21.722,3.148A2.407,2.407,0,0,0,454.58,649.631Z" transform="translate(-289.708 -389.408)" fill="#2f2e41"/>
          <path id="Path_50398" data-name="Path 50398" d="M659.341,628.588a10.491,10.491,0,0,1-15.364-4.77l-78.831,6.192,3.811-19.53,81.309-.775a10.548,10.548,0,0,1,9.076,18.882Z" transform="translate(-486.63 -372.334)" fill="#f5d1d6"/>
          <path id="Path_50399" data-name="Path 50399" d="M719.987,380.059s-11.908-9.527-26.2,7.621c-9.637,11.564-28.227,81.474-29.768,110.443a13.329,13.329,0,0,0,13.616,14.033l42.018-.731,4.7-26.413-33.173.393Z" transform="translate(-593.838 -250.992)" fill="#f7cd42"/>
          <path id="Path_50400" data-name="Path 50400" d="M377.218,567.974a10.83,10.83,0,0,0,4.2-.85l85,1.939a10.8,10.8,0,0,0,6.5-11.709l3.158-74.647a10.785,10.785,0,0,0-11.4-9.085L385.761,476.9a10.831,10.831,0,0,0-9.966,12.644l-9.245,69.434A10.848,10.848,0,0,0,377.218,567.974Z" transform="translate(-203.873 -301.357)" fill="#3f3d56"/>
        </g>
        <path id="Path_50384" data-name="Path 50384" d="M8.114-9.919V-14.28H5.324v4.361L1.382-11.454.44-8.768l4.047,1.36L1.905-3.989,4.242-2.28,6.684-5.873,9.266-2.28l2.3-1.709L8.987-7.408,13.1-8.768l-.942-2.686Z" transform="translate(403.229 765.28)" fill="#021255" stroke="#fff" stroke-width="1"/>
        <path id="Path_50388" data-name="Path 50388" d="M8.114-9.919V-14.28H5.324v4.361L1.382-11.454.44-8.768l4.047,1.36L1.905-3.989,4.242-2.28,6.684-5.873,9.266-2.28l2.3-1.709L8.987-7.408,13.1-8.768l-.942-2.686Z" transform="translate(440.264 765.28)" fill="#021255" stroke="#fff" stroke-width="1"/>
        <path id="Path_50386" data-name="Path 50386" d="M1878.375,757h10.734" transform="translate(-1397.742)" fill="none" stroke="#bec2d4" stroke-width="1"/>
        <path id="Path_50387" data-name="Path 50387" d="M1878.375,757h10.734" transform="translate(-1359.742)" fill="none" stroke="#bec2d4" stroke-width="1"/>
        <rect id="Rectangle_12149" data-name="Rectangle 12149" width="42" height="9" rx="4.5" transform="translate(300 579)" fill="#021255"/>
        <path id="Path_50401" data-name="Path 50401" d="M2369.988,1622.943s38.072,15.886,52.878,17.616c-2.159,34.554-9.8,84.085-52.878,99.314-44.314-16.074-51.827-79.8-50.679-99.314C2329.7,1639.263,2369.988,1622.943,2369.988,1622.943Z" transform="translate(-1941.702 -1014)" fill="#37db63" stroke="#fff" stroke-width="3"/>
        <path id="Path_50402" data-name="Path 50402" d="M2370.24,1624.539s33.524,14.44,51.206,17.333c0,34.853-15.705,86.833-51.428,96.4C2369.9,1738.347,2370.24,1624.539,2370.24,1624.539Z" transform="translate(-1941.702 -1014)" fill="#2dbe54"/>
      </g>
      <circle id="Ellipse_814" data-name="Ellipse 814" cx="19.5" cy="19.5" r="19.5" transform="translate(419 665)" fill="#fff"/>
      <path id="Path_50403" data-name="Path 50403" d="M1865.274,682.244l4.84,4.84,9.45-9.45" transform="translate(-1433 2.146)" fill="none" stroke="#2cbe55" stroke-linecap="round" stroke-width="4"/>
    </g>
  </g>
</svg>
