<svg width="686" height="686" viewBox="0 0 686 686" fill="none" xmlns="http://www.w3.org/2000/svg">
<path d="M157.728 184.255H102.683C95.0851 184.255 88.925 190.42 88.925 198.017V253.063C88.925 256.712 90.3718 260.209 92.952 262.794C95.5368 265.374 99.0338 266.82 102.683 266.82H157.728C161.377 266.82 164.879 265.374 167.459 262.794C170.039 260.209 171.491 256.712 171.491 253.063V198.017C171.491 194.368 170.039 190.867 167.459 188.286C164.879 185.706 161.377 184.255 157.728 184.255ZM143.966 239.3H116.445V211.78H143.966V239.3Z" fill="white"/>
<path d="M391.659 215.217H212.775C205.173 215.217 199.013 221.382 199.013 228.979C199.013 236.577 205.173 242.742 212.775 242.742H391.659C399.262 242.742 405.422 236.577 405.422 228.979C405.422 221.382 399.262 215.217 391.659 215.217Z" fill="white"/>
<path d="M157.728 304.671H102.683C95.0851 304.671 88.925 310.831 88.925 318.429V373.474C88.925 377.123 90.3718 380.624 92.952 383.205C95.5368 385.785 99.0338 387.236 102.683 387.236H157.728C161.377 387.236 164.879 385.785 167.459 383.205C170.039 380.624 171.491 377.123 171.491 373.474V318.429C171.491 314.779 170.039 311.282 167.459 308.698C164.879 306.117 161.377 304.671 157.728 304.671ZM143.966 359.716L116.445 359.711V332.191H143.966V359.716Z" fill="white"/>
<path d="M157.728 425.075H102.683C95.0851 425.075 88.925 431.235 88.925 438.837V493.882V493.878C88.925 497.527 90.3718 501.029 92.952 503.609C95.5368 506.189 99.0338 507.64 102.683 507.64H157.728C161.377 507.64 164.879 506.189 167.459 503.609C170.039 501.029 171.491 497.527 171.491 493.878V438.837C171.491 435.188 170.039 431.687 167.459 429.106C164.879 426.526 161.377 425.075 157.728 425.075ZM143.966 480.12H116.445V452.595H143.966V480.12Z" fill="white"/>
<path d="M32.8477 615.246L91.8832 656.529C96.6288 659.865 102.959 659.865 107.705 656.529L158.76 620.752L209.815 656.529C214.561 659.865 220.891 659.865 225.637 656.529L276.692 620.752L327.747 656.529H327.742C332.492 659.865 338.823 659.865 343.569 656.529L394.624 620.752L445.678 656.529H445.674C447.996 658.146 450.756 659.012 453.585 659.003C455.796 659.026 457.976 658.483 459.915 657.423C464.468 655.064 467.333 650.369 467.347 645.246V542.039C479.732 536.381 491.302 529.092 501.751 520.366L525.073 543.688L516.61 552.152C511.454 557.285 511.182 565.545 515.992 571.005L582.182 646.692V646.687C588.974 654.377 598.691 658.847 608.947 659.002H610.324H610.32C623.331 658.721 635.698 653.303 644.723 643.936C654.597 634.56 660.13 621.499 659.997 607.884C659.813 597.65 655.343 587.97 647.682 581.188L571.101 515.684C565.646 510.98 557.486 511.279 552.391 516.375L544.613 524.148L521.291 500.756C551.392 464.527 562.845 416.32 552.262 370.421C541.679 324.526 510.27 286.206 467.347 266.813V39.7579C467.347 36.1087 465.896 32.6117 463.316 30.027C460.736 27.4468 457.234 26 453.585 26H40.7578C33.1601 26 27 32.1602 27 39.7578V603.963C26.9908 608.45 29.1757 612.662 32.8477 615.246ZM562.646 544.858L629.316 601.967C631.191 603.76 632.237 606.252 632.204 608.846C632.2 614.771 629.822 620.443 625.602 624.603C621.547 628.884 615.945 631.363 610.051 631.482C607.457 631.514 604.965 630.469 603.168 628.593L545.239 562.679L562.646 544.858ZM138.472 53.5233L90.3109 101.685H54.5294V94.806L95.8121 53.5233H138.472ZM200.397 53.5233L152.235 101.685H109.575L157.736 53.5233H200.397ZM262.321 53.5233L214.159 101.685H171.499L219.66 53.5233H262.321ZM324.245 53.5233L276.083 101.685H233.423L281.584 53.5233H324.245ZM386.169 53.5233L338.007 101.685H295.347L343.508 53.5233H386.169ZM528.865 404.426C528.865 437.295 515.799 468.82 492.545 492.051C469.286 515.276 437.753 528.311 404.879 528.274C372.01 528.237 340.504 515.133 317.301 491.852C294.093 468.571 281.101 437.02 281.169 404.15C281.243 371.281 294.383 339.789 317.688 316.608C340.997 293.429 372.562 280.467 405.432 280.578C438.205 280.689 469.605 293.783 492.739 317C515.878 340.213 528.867 371.649 528.867 404.426H528.865ZM405.43 253.06C377.528 253.056 350.164 260.764 326.362 275.333C302.564 289.902 283.259 310.769 270.575 335.626H212.779C205.177 335.626 199.017 341.786 199.017 349.383C199.017 356.986 205.177 363.146 212.779 363.146H259.77C251.122 393.675 252.325 426.157 263.212 455.962H212.779C205.177 455.962 199.017 462.123 199.017 469.725C199.017 477.323 205.177 483.483 212.779 483.483H276.629C293.23 510.533 317.939 531.649 347.247 543.831C376.551 556.013 408.95 558.635 439.834 551.327V618.827L402.541 592.679C397.791 589.339 391.465 589.339 386.715 592.679L335.66 628.456L284.605 592.679H284.61C279.864 589.339 273.533 589.339 268.783 592.679L217.728 628.456L166.673 592.679H166.678C161.932 589.339 155.602 589.339 150.856 592.679L99.801 628.456L54.528 597.079V129.216H439.837V257.122C428.563 254.454 417.016 253.095 405.433 253.063L405.43 253.06ZM439.834 101.694L418.777 101.69L439.834 80.6378V101.694ZM439.834 61.236L399.376 101.69H356.853L405.015 53.528H439.834V61.236ZM76.5461 53.5277L54.527 75.5467V53.5277H76.5461Z" fill="white"/>
</svg>
