<svg width="686" height="686" viewBox="0 0 686 686" fill="none" xmlns="http://www.w3.org/2000/svg">
<path fill-rule="evenodd" clip-rule="evenodd" d="M160.564 153.485V182.817C177.805 183.677 220.911 180.231 226.945 200.934H160.564V226.814H230.394C230.394 226.814 220.911 247.517 197.636 250.103L160.564 250.963V276.843L237.292 366.553H277.808L204.528 277.703C204.528 277.703 250.218 278.563 265.735 225.082L294.184 225.942V201.788H264.011C264.011 201.788 264.011 190.573 255.388 179.359L295.044 178.499V153.484H160.56L160.564 153.485Z" fill="white"/>
<rect x="66" y="33" width="323.604" height="620.117" rx="26" stroke="white" stroke-width="28"/>
<rect x="144.357" y="29.5319" width="165.27" height="36.4566" rx="10" fill="white"/>
<rect x="145.167" y="624.99" width="165.27" height="8.91161" rx="4.45581" fill="white"/>
<rect x="145.167" y="389.237" width="165.27" height="8.91161" rx="4.45581" fill="white"/>
<rect x="145.167" y="420.833" width="165.27" height="8.91161" rx="4.45581" fill="white"/>
<rect x="145.167" y="452.428" width="165.27" height="8.91161" rx="4.45581" fill="white"/>
<path d="M496.437 342.142L506.803 341.115V330.698V293.972L616.669 390.704L506.805 488.874V451.575V441.144L496.424 440.129C458.332 436.407 410.403 443.06 366.786 457.634C336.246 467.839 306.779 482.277 284.052 500.636C293.46 464.892 317.858 431.892 350.598 404.975C392.903 370.195 447.541 346.987 496.437 342.142Z" fill="white" stroke="#2A6DD9" stroke-width="23"/>
</svg>
