<svg width="686" height="686" viewBox="0 0 686 686" fill="none" xmlns="http://www.w3.org/2000/svg">
<path d="M172.333 87C89.8575 87 23 153.857 23 236.333V449.667C23 532.143 89.8575 599 172.333 599H449.667C461.448 599 471 589.448 471 577.667C471 565.886 461.448 556.333 449.667 556.333H172.333C113.424 556.333 65.6667 508.576 65.6667 449.667V257.667H471C482.781 257.667 492.333 248.114 492.333 236.333C492.333 224.552 482.781 215 471 215H67.8C77.6857 166.314 120.729 129.667 172.333 129.667H513.667C565.271 129.667 608.315 166.314 618.2 215H577.667C565.886 215 556.333 224.552 556.333 236.333C556.333 248.114 565.886 257.667 577.667 257.667H620.333V385.667C620.333 397.448 629.886 407 641.667 407C653.448 407 663 397.448 663 385.667V236.333C663 153.857 596.143 87 513.667 87H172.333Z" fill="#2A6DD9"/>
<path d="M603.413 434.575C595.08 426.246 581.575 426.246 573.242 434.575C564.913 442.908 564.913 456.413 573.242 464.746L590.156 481.661H492.327C480.546 481.661 470.994 491.213 470.994 502.994C470.994 514.775 480.546 524.327 492.327 524.327H590.156L573.242 541.242C564.913 549.575 564.913 563.08 573.242 571.413C581.575 579.742 595.08 579.742 603.413 571.413L656.746 518.08C665.075 509.746 665.075 496.242 656.746 487.908L603.413 434.575Z" fill="#2A6DD9"/>
<path d="M108.333 321.667C108.333 309.886 117.885 300.333 129.666 300.333H215C226.781 300.333 236.333 309.886 236.333 321.667C236.333 333.448 226.781 343 215 343H129.666C117.885 343 108.333 333.448 108.333 321.667Z" fill="#2A6DD9"/>
</svg>
